<svg xmlns="http://www.w3.org/2000/svg" xmlns:xlink="http://www.w3.org/1999/xlink" preserveAspectRatio="xMidYMid" width="26.815" height="26.781" viewBox="0 0 26.815 26.781">
  <defs>
    <style>
      .cls-1 {
        fill: #fff;
        fill-rule: evenodd;
      }
    </style>
  </defs>
  <path d="M15.035,13.386 L26.451,24.802 C26.905,25.255 26.905,25.992 26.451,26.445 C26.224,26.673 25.926,26.786 25.629,26.786 C25.332,26.786 25.034,26.672 24.807,26.445 L13.391,15.029 L1.975,26.445 C1.748,26.673 1.451,26.786 1.153,26.786 C0.856,26.786 0.559,26.672 0.332,26.445 C-0.122,25.992 -0.122,25.255 0.332,24.802 L11.748,13.386 L0.331,1.970 C-0.123,1.516 -0.123,0.780 0.331,0.326 C0.786,-0.128 1.521,-0.128 1.975,0.326 L13.391,11.742 L24.807,0.326 C25.261,-0.128 25.997,-0.128 26.451,0.326 C26.905,0.779 26.905,1.516 26.451,1.969 L15.035,13.386 Z" class="cls-1"/>
</svg>
