<svg xmlns="http://www.w3.org/2000/svg" preserveAspectRatio="xMidYMid" width="37.593" height="37.688" viewBox="0 0 37.593 37.688"><defs><style>.cls-1{fill:#d40e4f;fill-rule:evenodd}</style></defs><path d="M35.984 18.804h-5.28c-.88 0-1.6-.72-1.6-1.6 0-.88.72-1.6 1.6-1.6h5.28c.88 0 1.6.72 1.6 1.6 0 .88-.72 1.6-1.6 1.6zm-7.2-7.84c-.32.32-.72.48-1.12.48-.4 0-.8-.16-1.12-.48-.64-.64-.64-1.6 0-2.24l3.76-3.76c.64-.64 1.6-.64 2.24 0 .64.64.64 1.6 0 2.24l-3.76 3.76zm-8.32 23.28c-.88 0-1.6-.72-1.6-1.6v-5.28c0-.88.72-1.6 1.6-1.6.88 0 1.6.72 1.6 1.6v5.28c0 .88-.72 1.6-1.6 1.6zm0-25.76c-.88 0-1.6-.72-1.6-1.6v-5.28c0-.88.72-1.6 1.6-1.6.88 0 1.6.72 1.6 1.6v5.28c0 .88-.72 1.6-1.6 1.6zm-7.2 2.96c-.4 0-.8-.16-1.12-.48l-3.76-3.68c-.64-.64-.56-1.6 0-2.24.56-.64 1.6-.64 2.24-.08l3.76 3.76c.64.64.64 1.6 0 2.24-.32.32-.72.48-1.12.48zm-1.44 5.6c0 .88-.72 1.6-1.6 1.6h-5.28c-.88 0-1.6-.64-1.6-1.6 0-.88.72-1.6 1.6-1.6h5.28c.88 0 1.6.72 1.6 1.6zm9.36-.64c.56.64.56 1.6 0 2.24l-18.48 18.56c-.32.32-.72.48-1.12.48-.4 0-.8-.16-1.12-.48-.64-.64-.64-1.6 0-2.24l18.48-18.56c.64-.64 1.6-.64 2.24 0zm7.6 6.88l3.76 3.76c.64.64.64 1.6 0 2.24-.32.32-.72.48-1.12.48-.4 0-.8-.16-1.12-.48l-3.76-3.76c-.64-.64-.64-1.6 0-2.24.64-.64 1.6-.64 2.24 0z" class="cls-1"/></svg>