<?xml version="1.0" encoding="UTF-8" standalone="no"?>
<svg width="10px" height="12px" viewBox="0 0 10 12" version="1.1" xmlns="http://www.w3.org/2000/svg" xmlns:xlink="http://www.w3.org/1999/xlink">
    <!-- Generator: sketchtool 40.3 (33839) - http://www.bohemiancoding.com/sketch -->
    <title>EDCEB5C2-D263-463C-A03B-10909556E64E</title>
    <desc>Created with sketchtool.</desc>
    <defs></defs>
    <g id="Page-1" stroke="none" stroke-width="1" fill="none" fill-rule="evenodd">
        <g id="Guide---Icons" transform="translate(-921.000000, -349.000000)">
            <g id="Icons/Trash-Gray" transform="translate(917.000000, 346.000000)">
                <g id="Icon-Trash">
                    <polygon id="Bounds" points="0 0 18 0 18 18 0 18"></polygon>
                    <path d="M13.3142606,4.1022183 L11.7246825,4.1022183 C11.5275324,4.1022183 11.4259059,3.94035751 11.4259059,3.94035751 L11.1259978,3.43091995 C10.9837411,3.18928743 10.6094646,3 10.2739323,3 L7.7260677,3 C7.39053543,3 7.01625888,3.18926017 6.87400225,3.43091995 L6.5473503,3.98577777 C6.5473503,3.98577777 6.47020462,4.1022183 6.29019804,4.1022183 L4.68573936,4.1022183 C4.30762268,4.1022183 4,4.34682249 4,4.64747953 L4,5.45473877 C4,5.75539581 4.30762268,6 4.68573936,6 L13.3142606,6 C13.6923773,6 14,5.75539581 14,5.45473877 L14,4.64747953 C14,4.34682249 13.6923773,4.1022183 13.3142606,4.1022183 Z M4.90445593,7 C4.90445593,7 4.53580245,7 4.53580245,7.27968208 C4.53933401,7.33983934 4.83649916,11.740311 4.878775,13.3098625 C4.9042845,14.2576193 5.6572949,15 6.59305483,15 L11.407048,15 C12.342808,15 13.0957841,14.2575854 13.1213279,13.3098625 C13.1635694,11.7403788 13.4607346,7.33983934 13.4637518,7.29556115 C13.4642318,7 13.2247374,7 13.2247374,7 L4.90445593,7 Z" id="Combined-Shape" fill="#AAB5B8"></path>
                </g>
            </g>
        </g>
    </g>
</svg>