<svg width="10" height="12" viewBox="0 0 10 12" xmlns="http://www.w3.org/2000/svg"><title>EDCEB5C2-D263-463C-A03B-10909556E64E</title><g fill="none" fill-rule="evenodd"><path d="M-4-3h18v18H-4z"/><path d="M9.314 1.102h-1.59c-.196 0-.298-.162-.298-.162l-.3-.51C6.984.19 6.609 0 6.274 0H3.726c-.335 0-.71.19-.852.43l-.327.556s-.077.116-.257.116H.686c-.378 0-.686.245-.686.545v.808c0 .3.308.545.686.545h8.628c.378 0 .686-.245.686-.545v-.808c0-.3-.308-.545-.686-.545zM.904 4s-.368 0-.368.28c.003.06.3 4.46.343 6.03.025.948.778 1.69 1.714 1.69h4.814c.936 0 1.689-.742 1.714-1.69.043-1.57.34-5.97.343-6.014C9.464 4 9.224 4 9.224 4H.905z" fill="#AAB5B8"/></g></svg>