<?xml version="1.0" encoding="UTF-8" standalone="no"?>
<svg width="12px" height="10px" viewBox="0 0 12 10" version="1.1" xmlns="http://www.w3.org/2000/svg" xmlns:xlink="http://www.w3.org/1999/xlink">
    <!-- Generator: sketchtool 40.3 (33839) - http://www.bohemiancoding.com/sketch -->
    <title>8563C039-71B8-4AC8-ACEA-75E9B0AE8C7F</title>
    <desc>Created with sketchtool.</desc>
    <defs></defs>
    <g id="Page-1" stroke="none" stroke-width="1" fill="none" fill-rule="evenodd">
        <g id="Guide---Icons" transform="translate(-1028.000000, -350.000000)">
            <g id="Icons/View-List-Gray" transform="translate(1025.000000, 346.000000)">
                <g id="Icon-List">
                    <polygon id="Bounds" points="0 0 18 0 18 18 0 18"></polygon>
                    <path d="M7,5.99998 L15,5.99998 L15,3.99998 L7,3.99998 L7,5.99998 Z M3,4.00008 L3.015,6.00008 L5.016,6.00008 L5.016,4.00008 L3,4.00008 Z M7,9.99998 L15,9.99998 L15,7.99898 L7,7.99898 L7,9.99998 Z M7,13.99998 L15,13.99998 L15,11.99998 L7,11.99998 L7,13.99998 Z M3,7.99968 L3.015,10.00068 L5.016,10.00068 L5.016,7.99968 L3,7.99968 Z M3,12.00018 L3.015,14.00018 L5.016,14.00018 L5.016,12.00018 L3,12.00018 Z" id="Combined-Shape" fill="#aab5b8"></path>
                </g>
            </g>
        </g>
    </g>
</svg>
