<?xml version="1.0" encoding="UTF-8" standalone="no"?>
<svg width="10px" height="10px" viewBox="0 0 10 10" version="1.1" xmlns="http://www.w3.org/2000/svg" xmlns:xlink="http://www.w3.org/1999/xlink">
    <!-- Generator: sketchtool 40.3 (33839) - http://www.bohemiancoding.com/sketch -->
    <title>E5648783-B7D5-4398-88D6-CC2328D7A5B1</title>
    <desc>Created with sketchtool.</desc>
    <defs></defs>
    <g id="Page-1" stroke="none" stroke-width="1" fill="none" fill-rule="evenodd">
        <g id="Guide---Icons" transform="translate(-777.000000, -350.000000)">
            <g id="Icons/Plus-Gray" transform="translate(773.000000, 346.000000)">
                <g id="Icon-Plus">
                    <polygon id="Bounds" points="0 0 18 0 18 18 0 18"></polygon>
                    <path d="M10,8 L10,4.50964952 C10,4.22765279 9.77404508,4 9.49531555,4 L8.50468445,4 C8.21403503,4 8,4.22817786 8,4.50964952 L8,8 L4.50964952,8 C4.22765279,8 4,8.22595492 4,8.50468445 L4,9.49531555 C4,9.78596497 4.22817786,10 4.50964952,10 L8,10 L8,13.4903505 C8,13.7723472 8.22595492,14 8.50468445,14 L9.49531555,14 C9.78596497,14 10,13.7718221 10,13.4903505 L10,10 L13.4903505,10 C13.7723472,10 14,9.77404508 14,9.49531555 L14,8.50468445 C14,8.21403503 13.7718221,8 13.4903505,8 L10,8 Z" id="Combined-Shape" fill="#FFFFFF"></path>
                </g>
            </g>
        </g>
    </g>
</svg>
