<?xml version="1.0" encoding="UTF-8" standalone="no"?>
<svg width="12px" height="14px" viewBox="0 0 12 14" version="1.1" xmlns="http://www.w3.org/2000/svg" xmlns:xlink="http://www.w3.org/1999/xlink">
    <!-- Generator: sketchtool 40.3 (33839) - http://www.bohemiancoding.com/sketch -->
    <title>CB6D327B-EE3B-4B4B-A304-BD5197A9A1DC</title>
    <desc>Created with sketchtool.</desc>
    <defs></defs>
    <g id="Page-1" stroke="none" stroke-width="1" fill="none" fill-rule="evenodd">
        <g id="Guide---Icons" transform="translate(-956.000000, -348.000000)">
            <g id="Icons/Upload-Gray" transform="translate(953.000000, 346.000000)">
                <g id="Icon-Export">
                    <polygon id="Bounds" points="0 0 18 0 18 18 0 18"></polygon>
                    <path d="M8.00000401,8 L5.38960379,8 C4.99652483,8 4.88207429,8.25076174 5.13296443,8.560092 L8.54561034,12.7676498 C8.79726257,13.0779197 9.20327375,13.0769801 9.45416385,12.7676498 L12.8668098,8.560092 C13.118462,8.24982211 13.0027985,8 12.6101704,8 L9.99999586,8 C9.99999862,7.99902388 10,7.99804744 10,7.99707067 L10,3.00292933 C10,2.43788135 9.55228475,2 9,2 C8.44386482,2 8,2.44902676 8,3.00292933 L8,7.99707067 C8,7.99804749 8.00000134,7.99902394 8.00000401,8 Z M15,15 C15,15.5522847 14.544239,16 13.9975267,16 L4.00247329,16 C3.44882258,16 3,15.5561352 3,15 C3,14.4477153 3.45576096,14 4.00247329,14 L13.9975267,14 C14.5511774,14 15,14.4438648 15,15 Z" id="Combined-Shape" fill="#AAB5B8" transform="translate(9.000000, 9.000000) rotate(180.000000) translate(-9.000000, -9.000000) "></path>
                </g>
            </g>
        </g>
    </g>
</svg>