<svg xmlns="http://www.w3.org/2000/svg" width="84.3" height="83" viewBox="0 0 66 65"><style>.st0{fill:#d40e4f}.st1{fill:#fcfdff}</style><path class="st0" d="M14.6 54.2l-7.9-12C-.5 31.3 2.5 16.5 13.4 9.3l8.1-5.4c10.9-7.2 25.7-4.2 32.9 6.7l7.9 12c7.2 10.9 4.2 25.7-6.7 32.9l-8.1 5.4c-11 7.2-25.7 4.2-32.9-6.7z"/><path class="st1" d="M62.7 24.7V9c0-2.2-.9-4.1-2.3-5.5C59 2 57 1.1 54.8 1.1H39.2h-1.8-.1c-.4 0-.7.1-1.1.2-.2.1-.4.1-.7.2-.1 0-.3.1-.4.2l-1.2.6c-.6.4-1.1.8-1.6 1.4l-7.1 7.1c-.1 0-.1.1-.2.2L2.2 33.9C.7 35.4 0 37.4 0 39.4c0 .7.1 1.4.3 2.1v.1c0 .1.1.3.1.4 0 .1.1.2.1.3 0 .1.1.2.1.2.1.2.1.3.2.5 0 .1.1.1.1.2.1.2.2.3.3.5.1.2.3.4.4.6v.1c.2.2.3.4.5.6l8.3 8.3 8.3 8.3c.2.2.4.4.6.5h.1c.2.1.4.3.6.4.2.1.3.2.5.3.1 0 .1.1.2.1.1.1.3.1.5.2.1 0 .2.1.2.1.1 0 .2.1.3.1.1 0 .3.1.4.1h.1c.7.2 1.4.3 2.2.3 2 0 4-.7 5.5-2.2l22.8-22.8.2-.2 7.1-7.1c.5-.5 1-1 1.4-1.6.2-.4.5-.8.6-1.2.1-.1.1-.3.2-.4.1-.2.1-.4.2-.7.1-.4.2-.7.2-1.1v-.1c0-.4.1-.8 0-1.3v-.4l.1.1zm-3.9-.1c0 .4 0 .7-.1 1.1-.2 1.2-.7 2.4-1.6 3.3L28.6 57.4c-2.3 2.3-6 2.3-8.3 0l-6.9-6.9-6.9-6.9c-2.3-2.3-2.3-6 0-8.3L34.8 6.8c.9-.9 2.1-1.5 3.3-1.6.3-.1.7-.1 1.1-.1h14.7c1.3 0 2.6.5 3.5 1.4.9.9 1.4 2.1 1.4 3.5v14.6z"/><path class="st1" d="M52.6 11.3C51.1 9.9 49.2 9 47 9c-4.3 0-7.8 3.5-7.8 7.8 0 2.2.9 4.1 2.3 5.5 1.4 1.4 3.4 2.3 5.5 2.3 4.3 0 7.8-3.5 7.8-7.8.1-2.1-.8-4.1-2.2-5.5zm-5.5 9.4c-.1 0-.1 0 0 0-1.1 0-2.1-.4-2.8-1.1-.7-.7-1.1-1.7-1.1-2.8v-.1c0-2.1 1.7-3.8 3.9-3.9h.1c1.1 0 2.1.4 2.8 1.1.7.7 1.1 1.7 1.1 2.8v.1c-.2 2.2-1.9 3.9-4 3.9z"/></svg>
