<svg xmlns="http://www.w3.org/2000/svg" width="81.3" height="83" viewBox="0 0 81.3 82.9"><style>.st0{fill:#d40e4f}.st1{fill:#fcfdff}</style><path class="st0" d="M2.7 39.1l21-31.6c5.1-7.7 15.4-9.8 23-4.7l27.2 18c7.7 5.1 9.8 15.4 4.7 23L57.7 75.4c-5.1 7.7-15.4 9.8-23 4.7l-27.2-18c-7.7-5-9.8-15.3-4.8-23z"/><path class="st1" d="M68.3 23h-24L57.8 9.4c.9-.9.9-2.4 0-3.3-.9-.9-2.4-.9-3.3 0L40.1 20.6 25.8 6.1c-.9-.9-2.4-.9-3.3 0-.9.9-.9 2.4 0 3.3L35.9 23H12c-2.6 0-4.6 2.1-4.6 4.7v34.5c0 2.6 2.1 4.7 4.6 4.7h41c1.3 0 2.3-1 2.3-2.3 0-1.3-1-2.3-2.3-2.3H12V27.6v-.1h56.3V48c0 1.3 1 2.3 2.3 2.3 1.3 0 2.3-1 2.3-2.3V27.6c0-2.5-2.1-4.6-4.6-4.6zM68.3 71.9V57.2c0-1.2 1-2.1 2.1-2.1h.3c1.2 0 2.1 1 2.1 2.1v14.7c0 1.2-1 2.1-2.1 2.1h-.3c-1.2.1-2.1-.9-2.1-2.1z"/><path class="st1" d="M63.2 62.2H78c1.2 0 2.1 1 2.1 2.1v.3c0 1.2-1 2.1-2.1 2.1H63.2c-1.2 0-2.1-1-2.1-2.1v-.3c0-1.1 1-2.1 2.1-2.1z"/></svg>
