<svg xmlns="http://www.w3.org/2000/svg" width="88.1" height="83" viewBox="0 0 81.1 76.4"><style>.st0{fill:#d40e4f}.st1{fill:#fcfdff}</style><path class="st0" d="M57.4 76.2l-44.7-7.1C4.5 67.8-1.1 60.1.2 51.8l6.2-39C7.7 4.5 15.4-1.1 23.7.2l44.7 7.1c8.3 1.3 13.9 9.1 12.6 17.3l-6.2 39c-1.4 8.3-9.1 13.9-17.4 12.6z"/><path class="st1" d="M49.2 48l-15.9-9.3c-.6-.4-1.3-.4-1.9 0-.6.4-.9.9-.9 1.6V59c0 .7.4 1.3.9 1.6.3.2.7.3.9.3.4 0 .7-.1.9-.3l15.9-9.3c.6-.4.9-.9.9-1.6s-.2-1.4-.8-1.7zm-14.9 7.7V43.5l10.4 6.1-10.4 6.1zm33.6-27.1H19.5l1.5-.4L42.7 23l10.8-2.6 10.8-2.6 2.1-.6c.5-.1.9-.5 1.1-.8.3-.5.4-.9.2-1.4L65.2 4.3C64.6 2.1 62.7.5 60.3.5c-.4 0-.7.1-1.2.2L9.9 12.6c-2.7.7-4.3 3.4-3.6 6l2.6 10.7c.1.3.2.5.3.7-.1.2-.1.4-.1.6v35.2c0 2.7 2.2 4.9 4.9 4.9h50.7c2.7 0 4.9-2.2 4.9-4.9V30.5c.1-1-.7-1.9-1.7-1.9zM10.8 16.2l49.3-12h.3c.6 0 1 .4 1.2.9l2.1 8.4L52.3 3.3c-.8-.6-2.1-.4-2.6.5-.6.8-.4 2.1.5 2.6l9.2 8.7-6 1.5L41.5 5.9c-.8-.6-2.1-.4-2.6.5-.6.8-.4 2.1.5 2.6l9.2 8.7-6 1.5-12-10.6c-.8-.6-2.1-.4-2.6.5s-.4 2.1.5 2.6l9.2 8.7-6 1.5-12-10.6c-.8-.6-2.1-.4-2.6.5s-.4 2.1.5 2.6l9.2 8.7-6 1.5L9.1 14c-.8-.6-.4.3-.9 1.2-.6.8-2.1 1.4-1.2 1.9l9.2 8.7-4.1 1-2.1-9c-.3-.8.1-1.5.8-1.6zm55.4 16.6v32.6c-.2.9-.7 1.5-1.4 1.5H14c-.7 0-1.2-.6-1.2-1.2V32.3h4"/></svg>
