<svg xmlns="http://www.w3.org/2000/svg" width="99.6" height="101.4" viewBox="0 0 93.5 95.2"><style>.st0{fill:#d40e4f}.st1{fill:#FFF}</style><path class="st0" d="M2.7 46.8l26-39.4c5.1-7.7 15.4-9.8 23-4.7L86 25.4c7.7 5.1 9.8 15.4 4.7 23l-26 39.4c-5.1 7.7-15.4 9.8-23 4.7L7.5 69.8c-7.7-5-9.8-15.3-4.8-23z"/><path class="st1" d="M68.2 50.1c0 1.4-1.1 2.5-2.5 2.5H49.2c-1.4 0-2.5-1.1-2.5-2.5V33.5c0-1.4 1.1-2.5 2.5-2.5s2.5 1.1 2.5 2.5v14.1h14.1c1.3 0 2.4 1.1 2.4 2.5zm-19 22.7c-1.4 0-2.5 1.1-2.5 2.5s1.1 2.5 2.5 2.5 2.5-1.1 2.5-2.5-1.1-2.5-2.5-2.5zM21.6 50.1c0 1.4 1.1 2.5 2.5 2.5s2.5-1.1 2.5-2.5-1.1-2.5-2.5-2.5-2.5 1.1-2.5 2.5zm55.2 0c0-15.3-12.4-27.6-27.6-27.6-1.4 0-2.5 1.1-2.5 2.5s1.1 2.5 2.5 2.5c12.5 0 22.7 10.2 22.7 22.7 0 1.4 1.1 2.5 2.5 2.5 1.3-.2 2.4-1.3 2.4-2.6zm-41.4-24c-1.2.7-1.6 2.2-.9 3.4.7 1.2 2.2 1.6 3.4.9 1.2-.7 1.6-2.2.9-3.4-.7-1.1-2.2-1.5-3.4-.9zm25.2 43.6c-1.2.7-1.6 2.2-.9 3.4.7 1.2 2.2 1.6 3.4.9 1.2-.7 1.6-2.2.9-3.4-.8-1.1-2.3-1.5-3.4-.9zm-35.3-5.8c.7 1.2 2.2 1.6 3.4.9 1.2-.7 1.6-2.2.9-3.4-.7-1.2-2.2-1.6-3.4-.9s-1.6 2.2-.9 3.4zm0-27.6c-.7 1.2-.3 2.7.9 3.4 1.2.7 2.7.3 3.4-.9.7-1.2.3-2.7-.9-3.4-1.2-.7-2.7-.3-3.4.9zm43.6 25.1c-.7 1.2-.3 2.7.9 3.4 1.2.7 2.7.3 3.4-.9.7-1.2.3-2.7-.9-3.4-1.2-.6-2.7-.2-3.4.9zM35.4 74c1.2.7 2.7.3 3.4-.9.7-1.2.3-2.7-.9-3.4-1.2-.7-2.7-.3-3.4.9-.7 1.2-.3 2.7.9 3.4z"/></svg>
