<svg xmlns="http://www.w3.org/2000/svg" width="96.2" height="102.5" viewBox="0 0 96.2 102.5"><style>.st0{fill:#00bbeb}.st1{fill:#FFF}</style><path class="st0" d="M18.2 87.3L1.7 44.7C-3 32.4 3.1 18.7 15.3 14L47.4 1.6c12.2-4.7 26 1.4 30.7 13.6l16.4 42.6c4.7 12.2-1.4 26-13.6 30.7l-32.1 12.4c-12.2 4.7-25.9-1.4-30.6-13.6z"/><path class="st1" d="M78.7 62.2c-.6.8-1.6 1.2-2.7 1.2-.7 0-1.3-.3-1.8-.7l-.8-.7c-.1-.1-.2-.1-.3-.2l-9.6-7.5c-.8-.6-1.9-.7-2.7 0-.9.9-.8 2.3.1 3.1l1.1.9.1.1 8.6 6.7c.6.5.9 1.2 1 2 .1.8-.1 1.6-.6 2.3-.6.8-1.6 1.2-2.7 1.2-.7 0-1.3-.3-1.8-.7l-8.5-6.6-.1-.5c-.8-.6-1.9-.7-2.7 0-.9.9-.8 2.3.1 3.1l.2.1c-1.1-.7-2.4-1.1-3.7-1v-.1c-.2-1.9-1.2-3.6-2.7-4.7-1.5-1.2-3.4-1.7-5.2-1.5-.5.1-.9.2-1.3.3-.4-1.5-1.2-2.9-2.5-3.9-1.7-1.3-3.8-1.8-5.9-1.4-1.7.4-3.2 1.4-4.3 2.8l-.8 1c-.5-.9-1.1-1.8-2-2.5-1.7-1.3-3.8-1.8-5.9-1.4-1.7.4-3.2 1.4-4.3 2.8L15 59c-.1.1-.2.3-.3.4l-2.2-17.9c0-.1.1-.3.2-.3l4.2-.5c.4 0 .8-.2 1.1-.5l7.8-6.6L36 30.7l-6.2 7.2c-.4.4-.6.9-.6 1.5s.3 1.1.7 1.4c4 3.6 12.8 1.9 18.6-2.6l9.3 1.9L78 57.7c.6.4 1 1 1.2 1.7.3 1 .1 2-.5 2.8m-16 12.2c-.4.4-.9.7-1.4.8-.6.1-1.1-.1-1.6-.4L58 73.4c.3-.9.5-1.9.4-2.9-.2-1.4-.8-2.7-1.9-3.7l5.8 4.6c.4.4.7.9.8 1.4.1.6-.1 1.1-.4 1.6m-14.2 5.1c-.4.4-.9.7-1.4.8-.6.1-1.1-.1-1.6-.4-.4-.4-.7-.9-.8-1.4-.1-.5.1-1 .3-1.4l5.3-6.8c.1-.1.2-.2.2-.3.4-.4.9-.7 1.4-.8.6-.1 1.1.1 1.6.4.4.4.7.9.8 1.4.1.6-.1 1.1-.4 1.6l-5.4 6.9zm-12.4-2.7c-.7-.5-1.1-1.2-1.2-2.1-.1-.8.1-1.6.6-2.3l6.7-8.6c.5-.7 1.2-1.1 2.1-1.2s1.6.1 2.3.6c.7.5 1.1 1.2 1.2 2.1.1.8-.1 1.5-.5 2.1l-5.3 7c-.1.1-.1.2-.2.3l-1.3 1.6c-.5.7-1.2 1.1-2.1 1.2-.8.1-1.6-.2-2.3-.7m-9-5.1c-.7-.5-1.1-1.2-1.2-2.1-.1-.8.1-1.6.6-2.3l6.7-8.6c.5-.7 1.2-1.1 2.1-1.2.8-.1 1.6.1 2.3.6 1.3 1.1 1.6 3 .5 4.4l-6.7 8.6c-.5.7-1.2 1.1-2.1 1.2-.8.2-1.6-.1-2.2-.6m-8.4-5.8c-.7-.5-1.1-1.2-1.2-2.1-.1-.8.1-1.6.6-2.3l2.2-2.8c.5-.7 1.2-1.1 2.1-1.2s1.6.1 2.3.6c1.3 1.1 1.6 3 .5 4.4L23 65.3c-.5.7-1.2 1.1-2.1 1.2-.8.1-1.6-.1-2.2-.6m59.1-31.6l2.3 19.4c0 .2-.2.4-.4.2L60 36.7c-.2-.2-.5-.3-.8-.4l-10.7-2.2c-.6-.1-1.3 0-1.7.5-3.5 3.1-8.6 5.4-12.1 4.3L44 28.5l.7-.2L62 24.7l15.7 9.5c0-.1.1 0 .1.1zm-30.3 50c1.6-.2 3.1-1 4.1-2.3l4.1-5.2 1.3 1c1.2.9 2.6 1.5 4.1 1.4 1.9-.1 3.5-.9 4.7-2.3.6-.8 1-1.7 1.2-2.6.8.2 1.7.3 2.5.2 1.9-.2 3.6-1.2 4.7-2.7 1-1.3 1.5-2.8 1.5-4.3H77c1.5-.2 2.9-.8 4-1.8.2-.2.4-.1.5.2.1 1 1 1.7 2 1.6l7.5-.9c1.1-.1 1.9-1.1 1.7-2.2-.1-1.1-1.1-1.9-2.2-1.7l-4.7.6c-.4 0-.7-.2-.7-.6l-4.5-37.1c-.1-.4.3-.9.7-.9l4.5-.5c1.1-.1 1.9-1.1 1.7-2.2-.1-1.1-1.1-1.9-2.2-1.7l-7 .8c-1.3.2-2.2 1.3-2 2.6l.6 5.3c0 .2-.2.4-.4.3l-12.4-7.4c-1.1-.7-2.4-.9-3.6-.6l-16.4 3.4v-.1l-2.5.7-17.4 5c-.3.1-.5.2-.7.4L16 36.8l-3.6.4c-.1 0-.3-.1-.3-.2l-.7-6.1c-.1-1.1-1.2-1.9-2.3-1.8l-7.2.9c-1.2.1-2 1-1.9 2.1.1 1.1 1.1 1.9 2.2 1.7l4.6-.5c.4 0 .8.2.8.7L12 71c.1.4-.3.9-.7.9l-4.5.5c-1.1.1-1.9 1.1-1.7 2.2.1 1.1 1.1 1.9 2.2 1.7l7.1-.9c1.2-.1 2-1.2 1.9-2.4l-.5-4.4c.1.1.2.2.4.3 1.5 1.2 3.4 1.7 5.2 1.5.2 0 .3-.1.5-.1.3 1.8 1.2 3.4 2.6 4.5 1.5 1.2 3.4 1.7 5.2 1.5.5-.1.9-.2 1.3-.3.4 1.5 1.2 2.9 2.5 3.9 1.5 1.2 3.4 1.7 5.2 1.5.8-.1 1.6-.3 2.3-.7.4.9 1 1.7 1.8 2.3 1.5 1 3.1 1.4 4.7 1.3"/></svg>