<svg version="1.1"
     xmlns="http://www.w3.org/2000/svg" xmlns:xlink="http://www.w3.org/1999/xlink" xmlns:a="http://ns.adobe.com/AdobeSVGViewerExtensions/3.0/"
     x="0px" y="0px" width="25px" height="25px" viewBox="0 0 25 25" style="enable-background:new 0 0 25 25;" xml:space="preserve">
    <style type="text/css">
        .st0{fill:rgb(0, 115, 211);}
    </style>
    <path class="st0" d="M24.7,23.3l-7.8-7.8c1.3-1.6,2.1-3.7,2.1-6C19,4.3,14.7,0,9.5,0S0,4.3,0,9.5S4.3,19,9.5,19c2.3,0,4.3-0.8,6-2.1
        l7.8,7.8c0.2,0.2,0.5,0.3,0.7,0.3s0.5-0.1,0.7-0.3C25.1,24.3,25.1,23.7,24.7,23.3z M2,9.5C2,5.4,5.4,2,9.5,2S17,5.4,17,9.5
        S13.6,17,9.5,17S2,13.6,2,9.5z"/>
</svg>
