<svg xmlns="http://www.w3.org/2000/svg" width="63.2" height="70.2" viewBox="0 0 63.2 70.2"><style>.st0{fill:#d40e4f}.st1{fill:#0ab9ee}.st2{fill:#101b21}.st3{fill:#fcfdff}</style><path class="st0" d="M2.8 15.9C1.1 16-.1 17.4 0 19.1l2.3 35.8c.1 1.7 1.5 2.9 3.2 2.8l2.3-.2 6.5-42.4-11.5.8zM60.9 15.3c-.1-1.7-1.5-2.9-3.2-2.8l-2.3.2L48.8 55l11.5-.7c1.7-.1 2.9-1.5 2.8-3.2l-2.2-35.8z"/><path class="st1" d="M7.2 61.5c-.2 1.7.9 3.2 2.6 3.5l33.7 5.2c1.7.3 3.2-.9 3.4-2.5L48.8 55l-41 2.6-.6 3.9zM55.9 8.7c.3-1.7-.9-3.2-2.5-3.4L19.7 0c-1.7-.3-3.2.9-3.4 2.5l-1.9 12.6 41-2.6.5-3.8z"/><path class="st2" d="M14.4 15.2L7.9 57.6 48.8 55l6.5-42.4z"/><path class="st3" d="M37.8 35.6l-10.3 6.8c-.9.6-2 0-2.1-1L24.7 29c-.1-1 1-1.7 1.9-1.3l11 5.6c1 .5 1.1 1.7.2 2.3z"/></svg>