<svg xmlns="http://www.w3.org/2000/svg" xmlns:xlink="http://www.w3.org/1999/xlink" preserveAspectRatio="xMidYMid" width="15" height="15" viewBox="0 0 15 15">
  <defs>
    <style>
      .cls-1 {
        fill: #fff;
        fill-rule: evenodd;
      }
    </style>
  </defs>
  <path d="M8.250,3.750 L6.750,3.750 L6.750,6.750 L3.750,6.750 L3.750,8.250 L6.750,8.250 L6.750,11.250 L8.250,11.250 L8.250,8.250 L11.250,8.250 L11.250,6.750 L8.250,6.750 L8.250,3.750 ZM7.500,0.000 C3.360,0.000 -0.000,3.360 -0.000,7.500 C-0.000,11.640 3.360,15.000 7.500,15.000 C11.640,15.000 15.000,11.640 15.000,7.500 C15.000,3.360 11.640,0.000 7.500,0.000 ZM7.500,13.500 C4.192,13.500 1.500,10.807 1.500,7.500 C1.500,4.192 4.192,1.500 7.500,1.500 C10.807,1.500 13.500,4.192 13.500,7.500 C13.500,10.807 10.807,13.500 7.500,13.500 Z" class="cls-1"/>
</svg>
