<svg xmlns="http://www.w3.org/2000/svg" width="301.2" height="190.6" viewBox="0 0 301.2 190.6"><style>.st0{fill:#cccbca}.st1{fill:#101b21}.st2{fill:#0ab9ee}.st3{fill:#fff}.st4{fill:#3e4959}.st5{fill:#e6e5e5}.st6{fill:#d40e4f}</style><path class="st0" d="M263.5 102.5h37.6v37.6h-37.6z"/><path class="st1" d="M238.5 118.8h5v5h-5zm10 0h5v5h-5zm10 0h5v5h-5z"/><path class="st0" d="M0 102.5h37.6v37.6H0z"/><path class="st1" d="M37.6 118.8h5v5h-5zm10 0h5v5h-5zm10.1 0h5v5h-5z"/><path class="st0" d="M131.8 0h37.6v37.6h-37.6z"/><path class="st1" d="M148.1 37.6h5v5h-5zm0 10h5v5h-5zm0 10.1h5v5h-5zm65.2-20.1h5v5h-5zm0 10h5v5h-5zm0 10.1h5v5h-5z"/><path class="st1" d="M233.4 37.6h5v5h-5zm-10.1 0h5v5h-5zm-10 0h5v5h-5z"/><path class="st2" d="M276.1 40.1c0 10.4-8.4 18.8-18.8 18.8s-18.8-8.4-18.8-18.8 8.4-18.8 18.8-18.8 18.8 8.4 18.8 18.8z"/><path class="st1" d="M82.8 37.6h5v5h-5zm0 10h5v5h-5zm0 10.1h5v5h-5z"/><path class="st1" d="M62.8 37.6h5v5h-5zm10 0h5v5h-5zm10 0h5v5h-5z"/><circle class="st2" cx="44.1" cy="40.1" r="18.8"/><path class="st1" d="M62.7 179.9V68.6c0-1.5.6-3 1.7-4.1 1.1-1.1 2.6-1.7 4.1-1.7h164.1c1.5 0 3 .6 4.1 1.7 1.1 1.1 1.7 2.6 1.7 4.1v111.3H62.7z"/><path class="st3" d="M72.5 72.5h156.2v97.6H72.5z"/><path class="st4" d="M153 67.6c0 1.4-1.1 2.4-2.5 2.4-1.3 0-2.4-1.1-2.4-2.4 0-1.4 1.1-2.4 2.4-2.4 1.4-.1 2.5 1 2.5 2.4z"/><path class="st3" d="M151.6 67.6c0 .5-.4 1-1 1-.5 0-1-.4-1-1 0-.5.4-1 1-1 .5 0 1 .4 1 1z"/><path class="st5" d="M43.2 179.9H258v3.9H43.2z"/><path class="st0" d="M258 183.8c0 1.7-.7 3.5-2 4.8-1.3 1.3-3.1 2-4.8 2H50c-1.8 0-3.5-.7-4.8-2-1.3-1.3-2-3.1-2-4.8H258zm-126.9-3.9h39.1v2h-39.1z"/><g><path class="st6" d="M79.4 79.9h142.8V156H79.4zm0 81h19.4v9.2H79.4zm24.8 0h19.4v9.2h-19.4zm24.4 0H148v9.2h-19.4zm24.7 0h19.4v9.2h-19.4zm24.7 0h19.4v9.2H178zm24.8 0h19.4v9.2h-19.4z"/><path class="st3" d="M141.4 107l23.8 13.8-23.8 13.7z"/></g><g><path class="st1" d="M194.7 166.6l-6.7-16.7 16.7 6.7-6.5 3.5z"/><path class="st1" d="M196.612 160.394l1.908-1.91 5.59 5.582-1.908 1.91z"/></g><g><path class="st3" d="M258.5 49h-2.4c-1.4 0-2.8-.6-3.8-1.6s-1.6-2.3-1.6-3.8h3.5c0 .5.2 1 .5 1.3.3.3.8.5 1.3.5h2.4c.3 0 .9-.1 1.3-.5.3-.3.5-.8.5-1.3s-.2-.9-.5-1.3c-.4-.4-1-.5-1.3-.5H256c-1.4 0-2.8-.6-3.8-1.6s-1.6-2.3-1.6-3.8c0-1.4.6-2.8 1.6-3.8s2.3-1.6 3.8-1.6h2.4c1.4 0 2.7.5 3.8 1.5 1 1 1.6 2.3 1.6 3.8h-3.5c0-.5-.2-1-.5-1.3-.3-.3-.8-.5-1.3-.5h-2.4c-.5 0-.9.2-1.3.5-.3.3-.5.8-.5 1.3s.2.9.5 1.3c.3.3.8.5 1.3.5h2.4c1.4 0 2.8.5 3.8 1.6 1 1 1.6 2.3 1.6 3.8 0 1.4-.6 2.8-1.6 3.8-1.1 1.2-2.4 1.7-3.8 1.7z"/><path class="st3" d="M255.5 29.6h3.5v3.3h-3.5zm0 17.7h3.5v3.3h-3.5z"/></g><g><path class="st3" d="M45.3 49h-2.4c-1.4 0-2.8-.6-3.8-1.6s-1.6-2.3-1.6-3.8H41c0 .5.2 1 .5 1.3.3.3.8.5 1.3.5h2.4c.3 0 .9-.1 1.3-.5.3-.3.5-.8.5-1.3s-.2-.9-.5-1.3c-.4-.4-1-.5-1.3-.5h-2.4c-1.4 0-2.8-.6-3.8-1.6s-1.6-2.3-1.6-3.8c0-1.4.6-2.8 1.6-3.8s2.3-1.6 3.8-1.6h2.4c1.4 0 2.7.5 3.8 1.5 1 1 1.6 2.3 1.6 3.8h-3.5c0-.5-.2-1-.5-1.3-.3-.3-.8-.5-1.3-.5h-2.4c-.5 0-.9.2-1.3.5-.3.3-.5.8-.5 1.3s.2.9.5 1.3c.3.3.8.5 1.3.5h2.4c1.4 0 2.8.5 3.8 1.6 1 1 1.6 2.3 1.6 3.8 0 1.4-.6 2.8-1.6 3.8-1 1.2-2.4 1.7-3.8 1.7z"/><path class="st3" d="M42.4 29.6h3.5v3.3h-3.5zm0 17.7h3.5v3.3h-3.5z"/></g></svg>