<?xml version="1.0" encoding="UTF-8" standalone="no"?>
<svg width="14px" height="14px" viewBox="0 0 14 14" version="1.1" xmlns="http://www.w3.org/2000/svg" xmlns:xlink="http://www.w3.org/1999/xlink">
    <!-- Generator: sketchtool 40.3 (33839) - http://www.bohemiancoding.com/sketch -->
    <title>2BF77B16-7AE6-4591-B3BE-F0634736AF8D</title>
    <desc>Created with sketchtool.</desc>
    <defs></defs>
    <g id="Page-1" stroke="none" stroke-width="1" fill="none" fill-rule="evenodd">
        <g id="Guide---Icons" transform="translate(-415.000000, -456.000000)">
            <g id="Icons/Close-Large-Gray" transform="translate(410.000000, 451.000000)">
                <g id="Icon-Close">
                    <polygon id="Bounds" points="0 0 24 0 24 24 0 24"></polygon>
                    <path d="M13,11 L13,4.66712976 C13,4.30533409 12.7018346,4 12.334029,4 L11.665971,4 C11.2951069,4 11,4.29868417 11,4.66712976 L11,11 L4.66712976,11 C4.30533409,11 4,11.2981654 4,11.665971 L4,12.334029 C4,12.7048931 4.29868417,13 4.66712976,13 L11,13 L11,19.3328702 C11,19.6946659 11.2981654,20 11.665971,20 L12.334029,20 C12.7048931,20 13,19.7013158 13,19.3328702 L13,13 L19.3328702,13 C19.6946659,13 20,12.7018346 20,12.334029 L20,11.665971 C20,11.2951069 19.7013158,11 19.3328702,11 L13,11 Z" id="Combined-Shape" fill="#AAB5B8" transform="translate(12.000000, 12.000000) rotate(45.000000) translate(-12.000000, -12.000000) "></path>
                </g>
            </g>
        </g>
    </g>
</svg>
