<svg xmlns="http://www.w3.org/2000/svg" width="345.8" height="61.9" viewBox="0 0 345.8 61.9"><style>.st0{fill:#fdfeff}.st1{fill:#FFF}.st2{fill:#d60e4f}.st3{fill:#09bbf0}.st4{fill:#a6a8a9}</style><path class="st0" d="M88.5 27.1H73.8l-3.2 8.3H64L77.7.8h6.8l13.7 34.6h-6.7l-3-8.3zm-2.2-5.6L81.2 7.9 76 21.5h10.3zM123.1 22.8c0 8.5-4.3 13.1-12 13.1-1.5 0-2.9-.2-4.3-.5V45h-6.2V17.9c0-4.2 2.9-8.7 10.9-8.7 3.5 0 11.6 1.3 11.6 13.6zm-6.2.3c0-5.9-1.3-8.6-5.3-8.6-2.7 0-4.7.6-4.7 2.8v13.5c1.1.2 2.3.3 3.8.3 3.7 0 6.2-1.7 6.2-8zM148.8 22.8c0 8.5-4.3 13.1-12 13.1-1.5 0-2.9-.2-4.3-.5V45h-6.2V17.9c0-4.2 2.9-8.7 10.9-8.7 3.5 0 11.6 1.3 11.6 13.6zm-6.2.3c0-5.9-1.3-8.6-5.3-8.6-2.7 0-4.7.6-4.7 2.8v13.5c1.1.2 2.3.3 3.8.3 3.7 0 6.2-1.7 6.2-8z"/><path class="st1" d="M161.8 14.7v12.8c0 2.3.9 2.9 3.2 2.9 1.2 0 2.1-.2 3-.6v5.1c-1.2.5-2.6.8-4.1.8-5.1 0-8.2-3.2-8.2-8.6V14.7h-4.4V9.4h4.4V1.7h6.2v7.7h6.1v5.3h-6.2zM196.3 9.4l-9.9 25.9h-6.5L170 9.4h6.6l6.5 19.5 6.5-19.5h6.7z"/><path class="st0" d="M219.7 20v7c0 4.2-2.9 8.7-10.9 8.7-8.2 0-11.1-4.6-11.1-8.9 0-1.9.8-8.1 11.1-8.1 1.6 0 3.2.2 4.6.4 0-2.8-1.5-4.9-5.5-4.9-3.1 0-5.7.5-7.6 1.3v-5c2.2-.9 4.8-1.5 7.9-1.5 7.5 0 11.5 3.9 11.5 11zm-6.2 3c-1.1-.2-2.3-.3-3.7-.3-4.2 0-5.9 1.2-5.9 3.4 0 2.7 1.6 4.1 4.9 4.1 3.5 0 4.7-1.6 4.7-3.9V23zM233.1 14.7v12.8c0 2.3.9 2.9 3.2 2.9 1.2 0 2.1-.2 3-.6v5.1c-1.2.5-2.6.8-4.1.8-5.1 0-8.2-3.2-8.2-8.6V14.7h-4.4V9.4h4.4V1.7h6.2v7.7h6.1v5.3h-6.2zM263.9 28.3v5c-2.4 1.3-5.6 2.3-9.7 2.3-5.1 0-12-2.1-12-13.1 0-7.7 3.1-13.7 11.6-13.7 8.1 0 11.6 6.1 11.6 12.5 0 1.1 0 2.2-.1 3.2h-16.6c.4 5 3.6 5.7 6.6 5.7 3.5.1 6.4-.9 8.6-1.9zm-15.4-7.9h10.4c-.3-3.3-1.9-6.4-5.2-6.4-3.1 0-4.8 1.8-5.2 6.4z"/><path class="st2" d="M2.4 13.3C1 13.4-.1 14.6 0 15.9l1.9 29.7c.1 1.5 1.3 2.5 2.7 2.4l2-.1L12 12.6l-9.6.7zM50.7 12.7c-.1-1.4-1.3-2.4-2.7-2.4l-2 .1-5.4 35.3 9.6-.6c1.4-.1 2.4-1.3 2.4-2.7l-1.9-29.7z"/><path class="st3" d="M6 51.2c-.2 1.4.7 2.7 2.1 2.9l28 4.3c1.4.2 2.7-.7 2.9-2.1l1.6-10.5-34.1 2.1-.5 3.3zM46.5 7.2c.2-1.4-.7-2.7-2.1-2.9L16.4 0c-1.4-.2-2.7.7-2.9 2.1l-1.6 10.5L46 10.5l.5-3.3z"/><path class="st0" d="M31.5 29.6l-8.6 5.7c-.7.5-1.7 0-1.7-.9l-.6-10.3c0-.8.8-1.4 1.6-1l9.2 4.7c.7.3.8 1.3.1 1.8z"/><g><path class="st4" d="M63.3 53.9c0-.7.1-1.4.4-2 .3-.6.6-1.1 1.1-1.6.5-.5 1-.8 1.6-1.1.6-.3 1.3-.4 2-.4s1.4.1 2 .4c.6.3 1.1.6 1.6 1.1.5.5.8 1 1.1 1.6s.4 1.3.4 2-.1 1.4-.4 2-.7 1.1-1.1 1.6c-.5.5-1 .8-1.6 1.1s-1.3.4-2 .4-1.4-.1-2-.4c-.6-.3-1.2-.6-1.6-1.1-.5-.5-.8-1-1.1-1.6-.3-.6-.4-1.3-.4-2zm1.1 0c0 .6.1 1.1.3 1.6.2.5.5.9.9 1.3s.8.7 1.3.9 1 .3 1.6.3c.6 0 1.1-.1 1.6-.3.5-.2.9-.5 1.3-.9s.6-.8.8-1.3c.2-.5.3-1 .3-1.6s-.1-1.1-.3-1.6c-.2-.5-.5-.9-.8-1.3s-.8-.7-1.3-.9c-.5-.2-1-.3-1.6-.3-.6 0-1.1.1-1.6.3s-.9.5-1.3.9-.7.8-.9 1.3c-.2.5-.3 1-.3 1.6zm1.6 0v-.5c0-.7.2-1.2.6-1.7s1-.6 1.7-.6c.4 0 .7.1 1 .2.3.1.5.3.7.4s.3.4.4.6c.1.2.1.4.1.6 0 .2-.1.2-.3.2h-.6c-.1 0-.2 0-.2-.1s-.1-.1-.1-.2c-.1-.2-.3-.3-.4-.4-.2-.1-.4-.1-.6-.1-.2 0-.4 0-.5.1s-.2.1-.3.2-.1.2-.2.4-.1.3-.1.4v1c0 .2 0 .3.1.4s.1.3.2.4l.3.3c.1.1.3.1.5.1s.4 0 .6-.1c.2-.1.3-.2.4-.4 0-.1.1-.1.1-.2s.1-.1.2-.1h.6c.2 0 .3.1.3.2 0 .2 0 .4-.1.6-.1.2-.2.4-.4.6s-.4.3-.7.4c-.3.1-.6.2-1 .2-.7 0-1.3-.2-1.7-.6-.4-.4-.6-1-.6-1.7v-.6zM78.2 58.4v-.5c0-.1 0-.2.1-.3 0-.1.1-.2.2-.3l4.1-3.7c.3-.3.5-.5.6-.8s.2-.6.2-1c0-.5-.1-.9-.4-1.2-.3-.3-.7-.5-1.4-.5-.3 0-.6 0-.8.1s-.4.2-.6.4-.3.4-.4.6-.2.4-.2.6c0 .1-.1.2-.1.2-.1.1-.1.1-.2.1h-.6c-.1 0-.2 0-.2-.1-.1-.1-.1-.1-.1-.2 0-.3.1-.7.2-1 .1-.4.4-.7.6-1 .3-.3.6-.5 1-.7s.9-.3 1.4-.3c.5 0 1 .1 1.4.2s.7.4 1 .6.5.6.6 1 .2.8.2 1.2c0 .3 0 .6-.1.8 0 .2-.1.5-.2.7-.1.2-.2.4-.4.6l-.6.6-3.1 2.9h4.3c.1 0 .2 0 .3.1.1.1.1.2.1.3v.5c0 .1 0 .2-.1.3-.1.1-.2.1-.3.1h-6c-.1 0-.2 0-.3-.1-.2 0-.2-.1-.2-.2zM86.5 53.9v-1.2c0-.5.1-1 .2-1.5s.4-.9.7-1.2.7-.6 1.1-.8c.4-.2 1-.3 1.6-.3.6 0 1.1.1 1.6.3.4.2.8.5 1.1.8.3.3.5.8.6 1.2s.2 1 .2 1.5v2.4c0 .5-.1 1-.2 1.5s-.4.9-.6 1.2c-.3.3-.7.6-1.1.8-.4.2-1 .3-1.6.3-.6 0-1.1-.1-1.6-.3-.4-.2-.8-.5-1.1-.8s-.5-.8-.7-1.2c-.1-.5-.2-1-.2-1.5v-1.2zm1.3 0v1.2c0 .9.2 1.5.6 2s.9.6 1.7.6c.7 0 1.3-.2 1.7-.6s.6-1.1.6-2v-1.2-1.2c0-.9-.2-1.5-.6-2s-.9-.6-1.7-.6c-.7 0-1.3.2-1.7.6-.4.4-.6 1.1-.6 2v1.2zM94.8 51.7c0-.1.1-.2.2-.2l3-2.3c.1-.1.1-.1.2-.1h.8c.1 0 .2 0 .3.1.1.1.1.2.1.3v9c0 .1 0 .2-.1.3-.1.1-.2.1-.3.1h-.6c-.1 0-.2 0-.3-.1s-.1-.2-.1-.3v-7.7l-2.3 1.7c-.1.1-.2.1-.3.1-.1 0-.2-.1-.3-.1l-.3-.4v-.4zM101 55.6c0-.3 0-.5.1-.8.1-.2.1-.5.2-.7l.3-.6c.1-.2.2-.4.4-.5l2.5-3.8.2-.2c.1-.1.2-.1.3-.1h.8c.1 0 .1 0 .2.1s.1.1.1.2v.1s0 .1-.1.1l-1.9 2.8c.1 0 .1 0 .2-.1h.3c.5 0 1 .1 1.4.3s.8.4 1.1.7c.3.3.6.7.8 1.1s.3.9.3 1.3c0 .5-.1.9-.3 1.3s-.4.8-.8 1.1c-.3.3-.7.5-1.1.7-.4.2-.9.3-1.4.3-.5 0-1-.1-1.5-.3-.4-.2-.8-.4-1.1-.7-.3-.3-.6-.7-.8-1.1s-.2-.8-.2-1.2zm1.4 0c0 .3.1.5.2.8.1.3.3.5.5.7s.4.4.7.5c.3.1.6.2 1 .2s.7-.1 1-.2.5-.3.7-.5.3-.4.5-.7c.1-.3.2-.5.2-.8s-.1-.5-.2-.8c-.1-.3-.3-.5-.5-.7s-.4-.4-.7-.5c-.3-.1-.6-.2-1-.2s-.7.1-1 .2c-.3.1-.5.3-.7.5s-.3.4-.5.7c-.2.2-.2.5-.2.8zM112 58.5s0-.1.1-.2l3.4-8.8c0-.1.1-.2.2-.3.1-.1.2-.2.4-.2h.8c.2 0 .3.1.4.2.1.1.2.2.2.3l3.4 8.8c0 .1.1.1.1.2s0 .2-.1.2c-.1.1-.1.1-.2.1h-.5c-.2 0-.3 0-.4-.1-.1-.1-.1-.2-.2-.2l-.7-1.9H114l-.7 1.9c0 .1-.1.1-.2.2s-.2.1-.4.1h-.5c-.1 0-.2 0-.2-.1.1 0 0-.1 0-.2zm2.6-3.2h3.9l-1.9-5-2 5zM122.4 58.4v-9.2c0-.1 0-.2.1-.3s.2-.1.3-.1h.5c.1 0 .2 0 .3.1s.1.2.1.3v9.2c0 .1 0 .2-.1.3-.1.1-.2.1-.3.1h-.5c-.1 0-.2 0-.3-.1s-.1-.2-.1-.3zM125.8 58.4v-9.2c0-.1 0-.2.1-.3s.2-.1.3-.1h.5c.1 0 .2 0 .3.1s.1.2.1.3v9.2c0 .1 0 .2-.1.3-.1.1-.2.1-.3.1h-.5c-.1 0-.2 0-.3-.1s-.1-.2-.1-.3zM132.5 58.4v-6.5c0-.1 0-.2.1-.3s.2-.1.3-.1h.5c.1 0 .2 0 .3.1s.1.2.1.3v.4c.2-.3.4-.5.7-.6.3-.1.6-.2 1-.2h.7c.1 0 .2 0 .3.1.1.1.1.2.1.3v.5c0 .1 0 .2-.1.3-.1.1-.2.1-.3.1h-.8c-1.1 0-1.6.5-1.6 1.6v4.1c0 .1 0 .2-.1.3-.1.1-.2.1-.3.1h-.5c-.1 0-.2 0-.3-.1s-.1-.3-.1-.4zM137.7 50v-.8c0-.1 0-.2.1-.3.1-.1.2-.1.3-.1h.8c.1 0 .2 0 .3.1s.1.2.1.3v.8c0 .1 0 .2-.1.3s-.2.1-.3.1h-.8c-.1 0-.2 0-.3-.1s-.1-.2-.1-.3zm.1 8.4v-6.5c0-.1 0-.2.1-.3s.2-.1.3-.1h.5c.1 0 .2 0 .3.1s.1.2.1.3v6.5c0 .1 0 .2-.1.3-.1.1-.2.1-.3.1h-.5c-.1 0-.2 0-.3-.1s-.1-.2-.1-.3zM140.8 55.2v-.5c0-.5.1-1 .3-1.4s.4-.8.7-1c.3-.3.6-.5 1-.7s.8-.2 1.2-.2c.6 0 1 .1 1.4.3s.6.4.8.6v-.4c0-.1 0-.2.1-.3.1-.1.2-.1.3-.1h.5c.1 0 .2 0 .3.1s.1.2.1.3v6.8c0 1-.3 1.7-.8 2.3s-1.4.9-2.5.9c-.6 0-1-.1-1.4-.2s-.7-.3-1-.5c-.3-.2-.4-.4-.6-.7-.1-.2-.2-.5-.2-.7 0-.1 0-.2.1-.3.1-.1.2-.1.3-.1h.4c.1 0 .2 0 .3.1s.1.2.2.3c0 .1.1.1.1.2l.3.3c.1.1.3.2.5.2.2.1.5.1.8.1.3 0 .6 0 .9-.1.3-.1.5-.2.7-.3s.3-.3.5-.6c.1-.2.2-.5.2-.9V58c-.2.3-.5.5-.8.7s-.8.3-1.4.3c-.4 0-.8-.1-1.2-.2s-.7-.4-1-.7c-.3-.3-.5-.6-.7-1-.2-.4-.3-.9-.3-1.4-.1-.2-.1-.4-.1-.5zm1.3.4c0 .7.2 1.2.6 1.6s.8.6 1.5.6c.6 0 1.1-.2 1.4-.5s.6-.9.6-1.5v-.5-.5c0-.7-.2-1.2-.6-1.5s-.8-.5-1.4-.5c-.6 0-1.1.2-1.5.6s-.6.9-.6 1.6V55.6zM149.6 58.4v-9.2c0-.1 0-.2.1-.3s.2-.1.3-.1h.5c.1 0 .2 0 .3.1s.1.2.1.3v3.1c.2-.2.4-.4.8-.6.3-.2.8-.3 1.4-.3.4 0 .8.1 1.2.2.4.1.7.3 1 .6s.5.6.6 1 .2.8.2 1.3v3.9c0 .1 0 .2-.1.3-.1.1-.2.1-.3.1h-.5c-.1 0-.2 0-.3-.1-.1-.1-.1-.2-.1-.3v-3.7c0-.7-.2-1.3-.5-1.6-.3-.4-.8-.5-1.4-.5-.6 0-1.1.2-1.4.5s-.5.9-.5 1.6v3.7c0 .1 0 .2-.1.3-.1.1-.2.1-.3.1h-.5c-.1 0-.2 0-.3-.1s-.2-.2-.2-.3zM157.2 52.4v-.5c0-.1 0-.2.1-.3.1-.1.2-.1.3-.1h1v-2.3c0-.1 0-.2.1-.3.1-.1.2-.1.3-.1h.5c.1 0 .2 0 .3.1s.1.2.1.3v2.3h1.8c.1 0 .2 0 .3.1.1.1.1.2.1.3v.5c0 .1 0 .2-.1.3-.1.1-.2.1-.3.1h-1.8v4.1c0 .2.1.3.2.4.1.1.2.2.4.3s.4.1.6.1h.7c.1 0 .2 0 .3.1s.1.2.1.3v.5c0 .1 0 .2-.1.3-.1.1-.2.1-.3.1h-.9c-.8 0-1.4-.2-1.8-.6s-.5-1-.5-1.8V53h-1c-.1 0-.2 0-.3-.1s-.1-.4-.1-.5zM163.1 57.3c0-.1 0-.2.1-.2.1-.1.2-.1.3-.1h.7c.1 0 .1.1.2.2.2.2.4.4.6.5s.6.2 1 .2c.2 0 .4 0 .6-.1s.4-.1.5-.2.3-.2.4-.3c.1-.1.1-.2.1-.4s0-.3-.1-.4c-.1-.1-.2-.2-.4-.3-.2-.1-.4-.2-.8-.2-.3-.1-.7-.2-1.1-.2-.8-.2-1.3-.4-1.6-.8-.3-.4-.5-.8-.5-1.3 0-.3.1-.5.2-.8.1-.3.3-.5.5-.7s.5-.3.8-.5.7-.2 1.2-.2.9.1 1.2.2.6.2.9.4.4.3.5.5c.1.2.2.4.2.5 0 .1 0 .2-.1.3s-.2.1-.3.1h-.7c-.1 0-.2-.1-.2-.2-.1-.2-.3-.3-.5-.4s-.6-.2-1-.2-.8.1-1 .2c-.3.2-.4.4-.4.7 0 .2 0 .3.1.4.1.1.2.2.4.3s.4.2.7.2c.3.1.6.1 1 .2s.8.2 1.1.4c.3.1.5.3.7.5.2.2.3.4.4.6.1.2.1.4.1.7 0 .3-.1.5-.2.8-.1.3-.3.5-.6.7-.3.2-.6.4-.9.5s-.8.2-1.2.2-.9-.1-1.2-.2-.7-.2-.9-.4-.4-.3-.6-.5c-.1-.4-.2-.6-.2-.7zM174 58.4v-6.5c0-.1 0-.2.1-.3s.2-.1.3-.1h.5c.1 0 .2 0 .3.1s.1.2.1.3v.4c.2-.3.4-.5.7-.6.3-.1.6-.2 1-.2h.7c.1 0 .2 0 .3.1.1.1.1.2.1.3v.5c0 .1 0 .2-.1.3-.1.1-.2.1-.3.1h-.8c-1.1 0-1.6.5-1.6 1.6v4.1c0 .1 0 .2-.1.3-.1.1-.2.1-.3.1h-.5c-.1 0-.2 0-.3-.1s-.1-.3-.1-.4zM178.8 55.8v-.6-.6c0-.4.1-.8.3-1.2s.4-.7.7-1c.3-.3.6-.5 1-.7s.8-.2 1.3-.2 1 .1 1.4.2.7.4 1 .7c.3.3.5.7.6 1.1s.2.9.2 1.5v.4c0 .1 0 .2-.1.3-.1.1-.2.1-.3.1h-4.8v.1c0 .6.2 1.1.6 1.5s.8.5 1.4.5c.5 0 .9-.1 1.2-.2.3-.1.5-.3.6-.5l.2-.2c.1-.1.1 0 .3 0h.4c.1 0 .2 0 .3.1s.1.2.1.3c0 .2-.1.4-.2.6s-.3.4-.6.6-.6.3-.9.4-.8.2-1.3.2-.9-.1-1.3-.2-.7-.4-1-.7c-.3-.3-.5-.6-.7-1-.2-.7-.3-1.1-.4-1.5zm1.3-1.3h3.9c0-.6-.2-1-.5-1.4-.4-.3-.8-.5-1.4-.5-.3 0-.5 0-.8.1s-.4.2-.6.4-.3.4-.4.6c-.1.2-.2.5-.2.8zM186.5 57.3c0-.1 0-.2.1-.2.1-.1.2-.1.3-.1h.7c.1 0 .1.1.2.2.2.2.4.4.6.5s.6.2 1 .2c.2 0 .4 0 .6-.1s.4-.1.5-.2.3-.2.4-.3c.1-.1.1-.2.1-.4s0-.3-.1-.4c-.1-.1-.2-.2-.4-.3-.2-.1-.4-.2-.8-.2-.3-.1-.7-.2-1.1-.2-.8-.2-1.3-.4-1.6-.8-.3-.4-.5-.8-.5-1.3 0-.3.1-.5.2-.8.1-.3.3-.5.5-.7s.5-.3.8-.5.7-.2 1.2-.2.9.1 1.2.2.6.2.9.4.4.3.5.5c.1.2.2.4.2.5 0 .1 0 .2-.1.3s-.2.1-.3.1h-.7c-.1 0-.2-.1-.2-.2-.1-.2-.3-.3-.5-.4s-.6-.2-1-.2-.8.1-1 .2c-.3.2-.4.4-.4.7 0 .2 0 .3.1.4.1.1.2.2.4.3s.4.2.7.2c.3.1.6.1 1 .2s.8.2 1.1.4c.3.1.5.3.7.5.2.2.3.4.4.6.1.2.1.4.1.7 0 .3-.1.5-.2.8-.1.3-.3.5-.6.7-.3.2-.6.4-.9.5s-.8.2-1.2.2-.9-.1-1.2-.2-.7-.2-.9-.4-.4-.3-.6-.5c-.1-.4-.2-.6-.2-.7zM193.7 55.8v-.6-.6c0-.4.1-.8.3-1.2s.4-.7.7-1c.3-.3.6-.5 1-.7s.8-.2 1.3-.2 1 .1 1.4.2.7.4 1 .7c.3.3.5.7.6 1.1s.2.9.2 1.5v.4c0 .1 0 .2-.1.3-.1.1-.2.1-.3.1H195v.1c0 .6.2 1.1.6 1.5s.8.5 1.4.5c.5 0 .9-.1 1.2-.2.3-.1.5-.3.6-.5l.2-.2c.1-.1.1 0 .3 0h.4c.1 0 .2 0 .3.1s.1.2.1.3c0 .2-.1.4-.2.6s-.3.4-.6.6-.6.3-.9.4-.8.2-1.3.2-.9-.1-1.3-.2-.7-.4-1-.7c-.3-.3-.5-.6-.7-1-.2-.7-.3-1.1-.4-1.5zm1.3-1.3h3.9c0-.6-.2-1-.5-1.4-.4-.3-.8-.5-1.4-.5-.3 0-.5 0-.8.1s-.4.2-.6.4-.3.4-.4.6c-.2.2-.2.5-.2.8zM201.8 58.4v-6.5c0-.1 0-.2.1-.3s.2-.1.3-.1h.5c.1 0 .2 0 .3.1s.1.2.1.3v.4c.2-.3.4-.5.7-.6.3-.1.6-.2 1-.2h.7c.1 0 .2 0 .3.1.1.1.1.2.1.3v.5c0 .1 0 .2-.1.3-.1.1-.2.1-.3.1h-.8c-1.1 0-1.6.5-1.6 1.6v4.1c0 .1 0 .2-.1.3-.1.1-.2.1-.3.1h-.5c-.1 0-.2 0-.3-.1s-.1-.3-.1-.4zM206.5 51.9c0-.1 0-.2.1-.2.1-.1.1-.1.2-.1h.5c.1 0 .2 0 .3.1.1.1.1.1.1.2l2.2 5.1 2.2-5.1c0-.1.1-.1.1-.2.1-.1.2-.1.3-.1h.6c.1 0 .2 0 .2.1.1.1.1.1.1.2v.1l-2.8 6.5c0 .1-.1.2-.1.2-.1.1-.2.1-.3.1h-.5c-.1 0-.2 0-.3-.1-.1-.1-.1-.2-.2-.2l-2.8-6.5.1-.1zM214.4 55.8v-.6-.6c0-.4.1-.8.3-1.2s.4-.7.7-1c.3-.3.6-.5 1-.7s.8-.2 1.3-.2 1 .1 1.4.2.7.4 1 .7c.3.3.5.7.6 1.1s.2.9.2 1.5v.4c0 .1 0 .2-.1.3-.1.1-.2.1-.3.1h-4.8v.1c0 .6.2 1.1.6 1.5s.8.5 1.4.5c.5 0 .9-.1 1.2-.2.3-.1.5-.3.6-.5l.2-.2c.1-.1.1 0 .3 0h.4c.1 0 .2 0 .3.1s.1.2.1.3c0 .2-.1.4-.2.6s-.3.4-.6.6-.6.3-.9.4-.8.2-1.3.2-.9-.1-1.3-.2-.7-.4-1-.7c-.3-.3-.5-.6-.7-1-.3-.7-.4-1.1-.4-1.5zm1.2-1.3h3.9c0-.6-.2-1-.5-1.4-.4-.3-.8-.5-1.4-.5-.3 0-.5 0-.8.1s-.4.2-.6.4-.3.4-.4.6c-.1.2-.2.5-.2.8zM222.1 55.2v-.5c0-.5.1-1 .3-1.4s.4-.8.7-1c.3-.3.6-.5 1-.7s.8-.2 1.2-.2c.6 0 1 .1 1.4.3s.6.4.8.6v-3.1c0-.1 0-.2.1-.3.1-.1.2-.1.3-.1h.5c.1 0 .2 0 .3.1s.1.2.1.3v9.2c0 .1 0 .2-.1.3-.1.1-.2.1-.3.1h-.5c-.1 0-.2 0-.3-.1s-.1-.2-.1-.3V58c-.2.3-.5.5-.8.7s-.8.3-1.4.3c-.4 0-.8-.1-1.2-.2s-.7-.4-1-.7c-.3-.3-.5-.6-.7-1-.2-.4-.3-.9-.3-1.4v-.5zm1.3.4c0 .7.2 1.2.6 1.6s.8.6 1.5.6c.6 0 1.1-.2 1.4-.5s.6-.8.6-1.4v-.6-.6c0-.7-.2-1.2-.6-1.5s-.8-.5-1.4-.5c-.6 0-1.1.2-1.5.6s-.6.9-.6 1.6v.7zM230.7 58.5v-.9c0-.1 0-.2.1-.2.1-.1.1-.1.2-.1h.9c.1 0 .2 0 .2.1.1.1.1.1.1.2v.9c0 .1 0 .2-.1.2-.1.1-.1.1-.2.1h-.9c-.1 0-.2 0-.2-.1-.1-.1-.1-.1-.1-.2zM237.9 58.4v-9c0-.1 0-.2.1-.3.1-.1.2-.1.3-.1h.5c.2 0 .3 0 .4.1.1.1.2.2.2.3l2.8 5.5 2.8-5.5c.1-.1.1-.2.2-.3.1-.1.2-.1.4-.1h.5c.1 0 .2 0 .3.1s.1.2.1.3v9c0 .1 0 .2-.1.3-.1.1-.2.1-.3.1h-.6c-.1 0-.2 0-.3-.1-.1-.1-.1-.2-.1-.3v-6.6l-2.2 4.2c-.1.1-.2.3-.2.3-.1.1-.2.1-.3.1h-.4c-.1 0-.3 0-.3-.1s-.2-.2-.2-.3l-2.2-4.2v6.6c0 .1 0 .2-.1.3-.1.1-.2.1-.3.1h-.6c-.1 0-.2 0-.3-.1s-.1-.2-.1-.3zM248.3 57c0-.4.1-.7.2-1 .1-.3.4-.5.6-.7.3-.2.6-.4.9-.5.4-.1.7-.2 1.1-.3l2-.3V54c0-.5-.2-.8-.5-1.1-.3-.2-.7-.4-1.2-.4-.4 0-.7.1-.9.2s-.4.3-.5.5l-.2.2h-.7c-.1 0-.2 0-.3-.1-.1-.1-.1-.2-.1-.3 0-.2.1-.4.2-.6.1-.2.3-.4.6-.6.2-.2.5-.3.9-.4.3-.1.7-.2 1-.2.4 0 .8.1 1.2.2s.7.3.9.5.5.5.6.9.2.7.2 1.2v4.3c0 .1 0 .2-.1.3-.1.1-.2.1-.3.1h-.5c-.1 0-.2 0-.3-.1-.1-.1-.1-.2-.1-.3v-.6c-.1.2-.2.3-.4.5s-.4.2-.6.3-.5.2-.7.2c-.2 0-.5.1-.7.1-.4 0-.7-.1-1-.2-.3-.1-.6-.2-.8-.4s-.4-.4-.5-.6c.1-.1 0-.3 0-.6zm1.3-.2c0 .1 0 .2.1.3 0 .1.1.2.2.3.1.1.2.2.4.2.2.1.4.1.6.1.3 0 .6-.1.9-.2s.5-.2.7-.4.4-.4.5-.6c.1-.2.2-.5.2-.8v-.3l-1.6.3c-.6.1-1.1.2-1.4.4-.4.1-.6.4-.6.7zM256.1 55.2v-.5c0-.5.1-1 .3-1.4s.4-.8.7-1c.3-.3.6-.5 1-.7s.8-.2 1.2-.2c.6 0 1 .1 1.4.3s.6.4.8.6v-3.1c0-.1 0-.2.1-.3.1-.1.2-.1.3-.1h.5c.1 0 .2 0 .3.1s.1.2.1.3v9.2c0 .1 0 .2-.1.3-.1.1-.2.1-.3.1h-.5c-.1 0-.2 0-.3-.1s-.1-.2-.1-.3V58c-.2.3-.5.5-.8.7s-.8.3-1.4.3c-.4 0-.8-.1-1.2-.2s-.7-.4-1-.7c-.3-.3-.5-.6-.7-1-.2-.4-.3-.9-.3-1.4v-.5zm1.3.4c0 .7.2 1.2.6 1.6s.8.6 1.5.6c.6 0 1.1-.2 1.4-.5s.6-.8.6-1.4v-.6-.6c0-.7-.2-1.2-.6-1.5s-.8-.5-1.4-.5c-.6 0-1.1.2-1.5.6s-.6.9-.6 1.6v.7zM264.5 55.8v-.6-.6c0-.4.1-.8.3-1.2s.4-.7.7-1c.3-.3.6-.5 1-.7s.8-.2 1.3-.2 1 .1 1.4.2.7.4 1 .7c.3.3.5.7.6 1.1s.2.9.2 1.5v.4c0 .1 0 .2-.1.3-.1.1-.2.1-.3.1h-4.8v.1c0 .6.2 1.1.6 1.5s.8.5 1.4.5c.5 0 .9-.1 1.2-.2.3-.1.5-.3.6-.5l.2-.2c.1-.1.1 0 .3 0h.4c.1 0 .2 0 .3.1s.1.2.1.3c0 .2-.1.4-.2.6s-.3.4-.6.6-.6.3-.9.4-.8.2-1.3.2-.9-.1-1.3-.2-.7-.4-1-.7c-.3-.3-.5-.6-.7-1-.3-.7-.4-1.1-.4-1.5zm1.2-1.3h3.9c0-.6-.2-1-.5-1.4-.4-.3-.8-.5-1.4-.5-.3 0-.5 0-.8.1s-.4.2-.6.4-.3.4-.4.6c-.1.2-.1.5-.2.8zM275.9 50v-.8c0-.1 0-.2.1-.3.1-.1.2-.1.3-.1h.8c.1 0 .2 0 .3.1s.1.2.1.3v.8c0 .1 0 .2-.1.3s-.2.1-.3.1h-.8c-.1 0-.2 0-.3-.1s-.1-.2-.1-.3zm.1 8.4v-6.5c0-.1 0-.2.1-.3s.2-.1.3-.1h.5c.1 0 .2 0 .3.1s.1.2.1.3v6.5c0 .1 0 .2-.1.3-.1.1-.2.1-.3.1h-.5c-.1 0-.2 0-.3-.1s-.1-.2-.1-.3zM279.4 58.4v-6.5c0-.1 0-.2.1-.3s.2-.1.3-.1h.5c.1 0 .2 0 .3.1s.1.2.1.3v.4c.2-.2.4-.4.8-.6.3-.2.8-.3 1.4-.3.4 0 .8.1 1.2.2.4.1.7.3 1 .6s.5.6.6 1 .2.8.2 1.3v3.9c0 .1 0 .2-.1.3-.1.1-.2.1-.3.1h-.5c-.1 0-.2 0-.3-.1-.1-.1-.1-.2-.1-.3v-3.7c0-.7-.2-1.3-.5-1.6-.3-.4-.8-.5-1.4-.5-.6 0-1.1.2-1.4.5s-.5.9-.5 1.6v3.7c0 .1 0 .2-.1.3-.1.1-.2.1-.3.1h-.5c-.1 0-.2 0-.3-.1s-.2-.2-.2-.3zM291.5 58.4v-9c0-.1 0-.2.1-.3.1-.1.2-.1.3-.1h3.8c.6 0 1.1.1 1.5.3s.7.4.9.7c.2.3.4.6.5.9.1.3.1.6.1.8 0 .3 0 .6-.1.8l-.3.6c-.1.2-.3.3-.4.4s-.2.2-.3.2c.4.2.7.6.9 1 .3.4.4.9.4 1.4 0 .4-.1.7-.2 1s-.3.6-.6.9-.6.5-1 .6-.8.2-1.3.2h-4c-.1 0-.2 0-.3-.1s0-.2 0-.3zm1.3-5.3h2.7c.6 0 1.1-.1 1.4-.4.3-.2.5-.6.5-1s-.2-.8-.5-1c-.3-.2-.8-.4-1.4-.4h-2.7v2.8zm0 4.4h2.9c.3 0 .6 0 .8-.1.2-.1.4-.2.6-.4.2-.2.3-.3.4-.5.1-.2.1-.4.1-.6 0-.2 0-.4-.1-.6-.1-.2-.2-.4-.3-.5-.2-.1-.3-.3-.6-.4-.2-.1-.5-.1-.9-.1h-2.9v3.2zM300.3 55.8v-.6-.6c0-.4.1-.8.3-1.2s.4-.7.7-1c.3-.3.6-.5 1-.7s.8-.2 1.3-.2 1 .1 1.4.2.7.4 1 .7c.3.3.5.7.6 1.1s.2.9.2 1.5v.4c0 .1 0 .2-.1.3-.1.1-.2.1-.3.1h-4.8v.1c0 .6.2 1.1.6 1.5s.8.5 1.4.5c.5 0 .9-.1 1.2-.2.3-.1.5-.3.6-.5l.2-.2c.1-.1.1 0 .3 0h.4c.1 0 .2 0 .3.1s.1.2.1.3c0 .2-.1.4-.2.6s-.3.4-.6.6-.6.3-.9.4-.8.2-1.3.2-.9-.1-1.3-.2-.7-.4-1-.7c-.3-.3-.5-.6-.7-1-.2-.7-.3-1.1-.4-1.5zm1.3-1.3h3.9c0-.6-.2-1-.5-1.4-.4-.3-.8-.5-1.4-.5-.3 0-.5 0-.8.1s-.4.2-.6.4-.3.4-.4.6c-.2.2-.2.5-.2.8zM308.5 58.4v-9.2c0-.1 0-.2.1-.3s.2-.1.3-.1h.5c.1 0 .2 0 .3.1s.1.2.1.3v9.2c0 .1 0 .2-.1.3-.1.1-.2.1-.3.1h-.5c-.1 0-.2 0-.3-.1s-.1-.2-.1-.3zM311.5 55.2v-.5c0-.5.1-1 .3-1.4s.4-.8.7-1c.3-.3.6-.5 1-.7s.8-.2 1.2-.2c.6 0 1 .1 1.4.3s.6.4.8.6v-.4c0-.1 0-.2.1-.3.1-.1.2-.1.3-.1h.5c.1 0 .2 0 .3.1s.1.2.1.3v6.8c0 1-.3 1.7-.8 2.3s-1.4.9-2.5.9c-.6 0-1-.1-1.4-.2s-.7-.3-1-.5c-.3-.2-.4-.4-.6-.7-.1-.2-.2-.5-.2-.7 0-.1 0-.2.1-.3.1-.1.2-.1.3-.1h.4c.1 0 .2 0 .3.1s.1.2.2.3c0 .1.1.1.1.2l.3.3c.1.1.3.2.5.2.2.1.5.1.8.1.3 0 .6 0 .9-.1.3-.1.5-.2.7-.3s.3-.3.5-.6c.1-.2.2-.5.2-.9V58c-.2.3-.5.5-.8.7s-.8.3-1.4.3c-.4 0-.8-.1-1.2-.2s-.7-.4-1-.7c-.3-.3-.5-.6-.7-1-.2-.4-.3-.9-.3-1.4-.1-.2-.1-.4-.1-.5zm1.2.4c0 .7.2 1.2.6 1.6s.8.6 1.5.6c.6 0 1.1-.2 1.4-.5s.6-.9.6-1.5v-.5-.5c0-.7-.2-1.2-.6-1.5s-.8-.5-1.4-.5c-.6 0-1.1.2-1.5.6s-.6.9-.6 1.6V55.6zM320 50v-.8c0-.1 0-.2.1-.3.1-.1.2-.1.3-.1h.8c.1 0 .2 0 .3.1s.1.2.1.3v.8c0 .1 0 .2-.1.3s-.2.1-.3.1h-.8c-.1 0-.2 0-.3-.1s-.1-.2-.1-.3zm.2 8.4v-6.5c0-.1 0-.2.1-.3s.2-.1.3-.1h.5c.1 0 .2 0 .3.1s.1.2.1.3v6.5c0 .1 0 .2-.1.3-.1.1-.2.1-.3.1h-.5c-.1 0-.2 0-.3-.1s-.1-.2-.1-.3zM323.5 55.8v-3.9c0-.1 0-.2.1-.3.1-.1.2-.1.3-.1h.5c.1 0 .2 0 .3.1.1.1.1.2.1.3v3.7c0 .7.2 1.3.5 1.6.3.4.8.5 1.4.5.6 0 1.1-.2 1.4-.5s.5-.9.5-1.6v-3.7c0-.1 0-.2.1-.3s.2-.1.3-.1h.5c.1 0 .2 0 .3.1s.1.2.1.3v6.5c0 .1 0 .2-.1.3-.1.1-.2.1-.3.1h-.5c-.1 0-.2 0-.3-.1s-.1-.2-.1-.3V58c-.2.2-.4.4-.8.6s-.8.3-1.3.3c-.4 0-.8-.1-1.2-.2s-.7-.3-.9-.6-.5-.6-.6-1-.3-.8-.3-1.3zM331.9 58.4v-6.5c0-.1 0-.2.1-.3s.2-.1.3-.1h.5c.1 0 .2 0 .3.1s.1.2.1.3v.4l.3-.3c.1-.1.2-.2.4-.3.1-.1.3-.2.5-.2s.4-.1.7-.1c.6 0 1 .1 1.4.3s.7.5.9.9c.1-.2.3-.3.4-.5.1-.2.3-.3.5-.4l.6-.3c.2-.1.5-.1.8-.1.9 0 1.6.3 2.1.8s.6 1.3.6 2.3v3.9c0 .1 0 .2-.1.3s-.2.1-.3.1h-.5c-.1 0-.2 0-.3-.1s-.1-.2-.1-.3v-3.7c0-.7-.1-1.2-.4-1.6-.3-.3-.7-.5-1.2-.5s-.9.2-1.2.5-.5.8-.5 1.5v3.8c0 .1 0 .2-.1.3-.1.1-.2.1-.3.1h-.5c-.1 0-.2 0-.3-.1-.1-.1-.1-.2-.1-.3v-3.7c0-.7-.1-1.2-.4-1.6-.3-.3-.7-.5-1.2-.5s-.9.2-1.2.5c-.3.3-.5.8-.5 1.5v3.8c0 .1 0 .2-.1.3-.1.1-.2.1-.3.1h-.5c-.1 0-.2 0-.3-.1s-.1-.1-.1-.2zM344.2 58.5v-.9c0-.1 0-.2.1-.2.1-.1.1-.1.2-.1h.9c.1 0 .2 0 .2.1.1.1.1.1.1.2v.9c0 .1 0 .2-.1.2-.1.1-.1.1-.2.1h-.9c-.1 0-.2 0-.2-.1-.1-.1-.1-.1-.1-.2z"/></g></svg>