<svg xmlns="http://www.w3.org/2000/svg" width="35.1" height="28.5" viewBox="0 0 35.1 28.5"><style>.st0{fill:#101b21}</style><path class="st0" d="M34.1.5c-1.4.8-2.9 1.4-4.6 1.7C28.3.9 26.4 0 24.3 0c-4 0-7.2 3.2-7.2 7.2 0 .6.1 1.1.2 1.6-6-.3-11.3-3.1-14.9-7.5-.6 1.1-1 2.3-1 3.6 0 2.5 1.3 4.7 3.2 6-1.2 0-2.3-.4-3.3-.9v.1c0 3.5 2.5 6.4 5.8 7.1-.6.2-1.2.3-1.9.3-.5 0-.9 0-1.4-.1.9 2.9 3.6 4.9 6.7 5-2.5 1.9-5.6 3.1-8.9 3.1-.6 0-1.2 0-1.7-.1 3.2 2 7 3.2 11 3.2 13.3 0 20.5-11 20.5-20.5v-.9c1.4-1 2.6-2.3 3.6-3.7-1.3.6-2.7 1-4.1 1.1 1.6-1 2.7-2.4 3.2-4.1z"/></svg>
