<?xml version="1.0" encoding="UTF-8" standalone="no"?>
<svg width="14px" height="14px" viewBox="0 0 14 14" version="1.1" xmlns="http://www.w3.org/2000/svg" xmlns:xlink="http://www.w3.org/1999/xlink">
    <!-- Generator: sketchtool 3.8.3 (29802) - http://www.bohemiancoding.com/sketch -->
    <title>513B36D0-A6EB-40D1-B0C6-B3CAEF685F24</title>
    <desc>Created with sketchtool.</desc>
    <defs></defs>
    <g id="Symbols" stroke="none" stroke-width="1" fill="none" fill-rule="evenodd" opacity="0.5">
        <g id="Header-Default" transform="translate(-1361.000000, -26.000000)" fill="#FFFFFF">
            <g id="Header">
                <g id="Button-Default" transform="translate(1356.000000, 21.000000)">
                    <path d="M15.0333333,14.975 L14.8583333,15.1791667 L10.9791667,12.9625 L10.9791667,7.24583333 L12.6708333,7.24583333 L12.6708333,11.9708333 C13.1375,12.2333333 14.45,12.9625 15.0041667,13.3125 C15.325,13.4875 15.4125,13.75 15.4416667,13.925 C15.5291667,14.45 15.0916667,14.9166667 15.0333333,14.975 M12,5 C8.15,5 5,8.15 5,12 C5,15.85 8.15,19 12,19 C15.85,19 19,15.85 19,12 C19,8.15 15.85,5 12,5" id="Page-1"></path>
                </g>
            </g>
        </g>
    </g>
</svg>