<svg xmlns="http://www.w3.org/2000/svg" xmlns:xlink="http://www.w3.org/1999/xlink" preserveAspectRatio="xMidYMid" width="24" height="10" viewBox="0 0 24 10">
  <defs>
    <style>
      .cls-1 {
        fill: #737373;
        fill-rule: evenodd;
      }
    </style>
  </defs>
  <path d="M23.000,6.000 L1.000,6.000 C0.448,6.000 0.000,5.552 0.000,5.000 C0.000,4.448 0.448,4.000 1.000,4.000 L23.000,4.000 C23.552,4.000 24.000,4.448 24.000,5.000 C24.000,5.552 23.552,6.000 23.000,6.000 ZM23.000,2.000 L1.000,2.000 C0.448,2.000 0.000,1.552 0.000,1.000 C0.000,0.448 0.448,-0.000 1.000,-0.000 L23.000,-0.000 C23.552,-0.000 24.000,0.448 24.000,1.000 C24.000,1.552 23.552,2.000 23.000,2.000 ZM1.000,8.000 L23.000,8.000 C23.552,8.000 24.000,8.448 24.000,9.000 C24.000,9.552 23.552,10.000 23.000,10.000 L1.000,10.000 C0.448,10.000 0.000,9.552 0.000,9.000 C0.000,8.448 0.448,8.000 1.000,8.000 Z" class="cls-1"/>
</svg>
