<svg xmlns="http://www.w3.org/2000/svg" width="40" height="40" viewBox="0 0 83.9 84"><style>.st0{fill:#e40477}.st1{fill:#e9348e}.st2{fill:#ec4c9b}.st3{fill:#ef65a7}.st4{fill:#f17eb5}.st5{fill:#f497c2}</style><path id="path36_1_" class="st0" d="M42.1 0H0v22.4L62.1 5.2C56.2 2 49.3 0 42.1 0"/><path id="path38_1_" class="st1" d="M.3 41.9c0 1.8.2 4.1.4 5.9l67.1-39c-1.8-1.4-4-2.7-5.9-3.8L0 21.7v20.2h.3"/><path id="path40_1_" class="st2" d="M67.6 8.8L.7 47.6c1.2 9.2 5.6 17.7 11.8 24.1l59-59.5c-1.3-1.3-2.6-2.4-3.9-3.4"/><path id="path42_1_" class="st3" d="M71.4 12.1L12.2 71.4c6.2 6.3 14.4 10.7 23.6 12.1l38.9-67.8c-1-1.2-2.1-2.5-3.3-3.6"/><path id="path44_1_" class="st4" d="M35.8 83.6c2.1.3 4.2.4 6.4.4.6 0 1.1-.1 1.6-.1h17.9l16.8-62.7c-1.1-1.9-2.4-3.7-3.7-5.4l-39 67.8"/><path id="path46_1_" class="st5" d="M83.9 83.9V42c0-7.6-2-14.8-5.5-20.9L61.6 83.9h22.3"/></svg>
