<svg xmlns="http://www.w3.org/2000/svg" preserveAspectRatio="xMidYMid" width="60" height="68" viewBox="0 0 60 68"><defs><style>.cls-1{fill:#adadad;fill-rule:evenodd}</style></defs><path d="M54 68.01H6a6 6 0 0 1-6-6v-56A6 6 0 0 1 6 .013h26.746a6 6 0 0 1 4.17 1.685L58.17 22.243A5.995 5.995 0 0 1 60 26.557V62.01a6 6 0 0 1-6 6zM37.172 7.508v14.505h15.004L37.172 7.507zM56 26.557c0-.19-.06-.368-.112-.545H37.172c-2.206 0-4-1.795-4-4V4.092c-.142-.03-.278-.08-.426-.08H6c-1.102 0-2 .898-2 2v56c0 1.1.898 2 2 2h48c1.102 0 2-.9 2-2V26.556zM41.086 48.19h5.437v2.278h-5.437v4.11h-2.553V43.134h8.35v2.34h-5.797v2.717zM30.082 54.58h-4.7V43.116h4.7c3.945 0 5.697 2.654 5.7 5.65 0 2.996-1.69 5.812-5.7 5.812zm0-9.153h-2.178v6.795h2.178c2.49 0 3.177-1.835 3.177-3.488s-.788-3.307-3.178-3.307zm-11.562 5.91h-2.85v3.243h-2.553V43.116h5.403c2.93 0 4.39 1.9 4.39 4.11 0 2.293-1.476 4.077-4.39 4.11zm0-5.795h-2.85v3.456h2.85c1.23 0 1.834-.803 1.834-1.72 0-.917-.623-1.736-1.834-1.736z" class="cls-1"/></svg>