<?xml version="1.0" encoding="utf-8"?>
<!-- Generator: Adobe Illustrator 16.0.4, SVG Export Plug-In . SVG Version: 6.00 Build 0)  -->
<!DOCTYPE svg PUBLIC "-//W3C//DTD SVG 1.0//EN" "http://www.w3.org/TR/2001/REC-SVG-20010904/DTD/svg10.dtd">
<svg version="1.0" id="Layer_1" xmlns="http://www.w3.org/2000/svg" xmlns:xlink="http://www.w3.org/1999/xlink" x="0px" y="0px"
	 width="144.809px" height="40px" viewBox="0 0 144.809 41.508" enable-background="new 0 0 144.809 41.508"
	 xml:space="preserve">
<g>
	<g>
		<path fill="#E52713" d="M28.298,19.709c2.246-1.677,4.023-4.255,4.002-8.108v-0.108c0.011-3.26-1.338-6.056-3.738-7.939
			c-2.396-1.891-5.77-2.895-9.835-2.895H0v40.19h19.165c4.447-0.002,8.217-0.891,10.949-2.795c2.74-1.896,4.34-4.887,4.322-8.641
			v-0.109C34.487,24.457,32.011,21.501,28.298,19.709z M22.087,13.025c-0.024,1.174-0.405,1.79-1.215,2.322
			c-0.817,0.521-2.187,0.825-3.955,0.822h-6.869V9.884h7.416c1.664-0.002,2.861,0.344,3.574,0.857
			c0.703,0.521,1.033,1.149,1.049,2.174V13.025z M10.05,25.012h8.841c2.059-0.004,3.438,0.391,4.221,0.949
			c0.775,0.561,1.096,1.234,1.113,2.303v0.109c-0.021,1.188-0.4,1.844-1.183,2.391c-0.793,0.537-2.118,0.865-3.877,0.861H10.05
			V25.012z"/>
		<path fill="#E52713" d="M61.73,19.709c2.247-1.677,4.023-4.255,4.001-8.108v-0.108c0.01-3.26-1.338-6.056-3.738-7.939
			c-2.396-1.891-5.77-2.895-9.836-2.895H33.433v40.19h19.164c4.448-0.002,8.219-0.891,10.95-2.795
			c2.738-1.896,4.341-4.887,4.319-8.641v-0.109C67.921,24.457,65.442,21.501,61.73,19.709z M55.519,13.025
			c-0.023,1.174-0.404,1.79-1.215,2.322c-0.82,0.521-2.187,0.825-3.953,0.819H43.48V9.884h7.419c1.661-0.002,2.86,0.344,3.571,0.857
			c0.702,0.521,1.03,1.149,1.049,2.174V13.025z M57.657,28.264v0.109c-0.021,1.188-0.4,1.844-1.185,2.391
			c-0.792,0.537-2.116,0.865-3.876,0.861h-9.117v-6.613h8.844c2.057-0.004,3.438,0.391,4.22,0.949
			C57.315,26.523,57.64,27.195,57.657,28.264z"/>
		<path fill="#E52713" d="M98.084,6.397c-3.77-3.592-9.107-5.74-15.346-5.739H66.864V40.85h15.885c6.235,0,11.571-2.18,15.338-5.799
			c3.771-3.613,5.957-8.662,5.955-14.298v-0.108C104.044,15.01,101.855,9.988,98.084,6.397z M93.391,20.753v0.109
			c-0.053,6.355-4.178,10.488-10.652,10.541h-5.605V10.103h5.605C89.2,10.151,93.341,14.395,93.391,20.753z"/>
		<path fill="#E52713" d="M138.811,6.04c-3.775-3.74-9.104-6.042-15.25-6.04c-6.146-0.003-11.502,2.327-15.305,6.095
			c-3.801,3.764-6.053,8.964-6.053,14.659v0.109c-0.002,5.692,2.223,10.868,5.998,14.606c3.773,3.738,9.104,6.041,15.249,6.039
			h0.009c6.146,0,11.498-2.33,15.295-6.094c3.803-3.768,6.057-8.965,6.055-14.662v-0.107C144.811,14.954,142.585,9.78,138.811,6.04z
			 M112.854,20.646c0.029-6.146,4.32-11.021,10.598-11.036c6.27,0.008,10.686,5.01,10.706,11.144v0.109
			c-0.027,6.145-4.32,11.02-10.599,11.034c-6.269-0.008-10.685-5.01-10.705-11.144V20.646z"/>
	</g>
</g>
</svg>
