<svg xmlns="http://www.w3.org/2000/svg" xmlns:xlink="http://www.w3.org/1999/xlink" preserveAspectRatio="xMidYMid" width="11" height="12" viewBox="0 0 11 12">
  <defs>
    <style>
      .cls-1 {
        fill: #7b8186;
        fill-rule: evenodd;
      }
    </style>
  </defs>
  <path d="M10.000,3.000 L10.000,11.000 C10.000,11.553 9.597,12.000 9.100,12.000 L9.000,12.000 L2.000,12.000 L1.900,12.000 C1.403,12.000 1.000,11.553 1.000,11.000 L1.000,3.000 L0.000,3.000 L0.000,2.000 L1.000,2.000 L1.900,2.000 L2.000,2.000 L2.000,1.000 L2.000,0.000 L3.000,0.000 L8.000,0.000 L9.000,0.000 L9.000,1.000 L9.000,2.000 L9.100,2.000 L10.000,2.000 L11.000,2.000 L11.000,3.000 L10.000,3.000 ZM5.000,10.000 L6.000,10.000 L6.000,4.000 L5.000,4.000 L5.000,10.000 ZM3.000,10.000 L4.000,10.000 L4.000,4.000 L3.000,4.000 L3.000,10.000 ZM8.000,1.000 L3.000,1.000 L3.000,2.000 L8.000,2.000 L8.000,1.000 ZM8.000,4.000 L7.000,4.000 L7.000,10.000 L8.000,10.000 L8.000,4.000 Z" class="cls-1"/>
</svg>
