<svg xmlns="http://www.w3.org/2000/svg" xmlns:xlink="http://www.w3.org/1999/xlink" preserveAspectRatio="xMidYMid" width="12.812" height="12.812" viewBox="0 0 12.812 12.812">
  <defs>
    <style>
      .cls-1 {
        fill: #ec410f;
        fill-rule: evenodd;
      }
    </style>
  </defs>
  <path d="M6.406,12.806 C2.877,12.806 0.006,9.935 0.006,6.406 C0.006,2.877 2.877,0.006 6.406,0.006 C9.935,0.006 12.806,2.877 12.806,6.406 C12.806,9.935 9.935,12.806 6.406,12.806 ZM7.206,4.006 C7.206,3.564 6.848,3.206 6.406,3.206 C5.964,3.206 5.606,3.564 5.606,4.006 L5.606,6.406 C5.606,6.848 5.964,7.206 6.406,7.206 C6.848,7.206 7.206,6.848 7.206,6.406 L7.206,4.006 ZM6.974,8.238 C6.678,7.942 6.134,7.942 5.838,8.238 C5.694,8.390 5.606,8.598 5.606,8.806 C5.606,9.014 5.694,9.222 5.838,9.374 C5.990,9.518 6.198,9.606 6.406,9.606 C6.614,9.606 6.822,9.518 6.974,9.374 C7.118,9.222 7.206,9.014 7.206,8.806 C7.206,8.598 7.118,8.390 6.974,8.238 Z" class="cls-1"/>
</svg>
