<svg xmlns="http://www.w3.org/2000/svg" xmlns:xlink="http://www.w3.org/1999/xlink" preserveAspectRatio="xMidYMid" width="12.812" height="12.812" viewBox="0 0 12.812 12.812">
  <defs>
    <style>
      .cls-1 {
        fill: #0073d3;
        fill-rule: evenodd;
      }
    </style>
  </defs>
  <path d="M6.406,12.806 C2.877,12.806 0.006,9.935 0.006,6.406 C0.006,2.877 2.877,0.006 6.406,0.006 C9.935,0.006 12.806,2.877 12.806,6.406 C12.806,9.935 9.935,12.806 6.406,12.806 ZM9.372,4.240 C9.059,3.928 8.553,3.928 8.240,4.240 L5.606,6.875 L4.572,5.840 C4.259,5.528 3.753,5.528 3.440,5.840 C3.128,6.153 3.128,6.659 3.440,6.972 L5.040,8.572 C5.197,8.728 5.401,8.806 5.606,8.806 C5.811,8.806 6.015,8.728 6.172,8.572 L9.372,5.372 C9.684,5.059 9.684,4.553 9.372,4.240 Z" class="cls-1"/>
</svg>
