<svg xmlns="http://www.w3.org/2000/svg" xmlns:xlink="http://www.w3.org/1999/xlink" preserveAspectRatio="xMidYMid" width="12.812" height="12.812" viewBox="0 0 12.812 12.812">
  <defs>
    <style>
      .cls-1 {
        fill: #f8aa0f;
        fill-rule: evenodd;
      }
    </style>
  </defs>
  <path d="M6.406,12.806 C2.877,12.806 0.006,9.935 0.006,6.406 C0.006,2.877 2.877,0.006 6.406,0.006 C9.935,0.006 12.806,2.877 12.806,6.406 C12.806,9.935 9.935,12.806 6.406,12.806 ZM4.574,5.838 C4.270,5.542 3.734,5.542 3.438,5.838 C3.294,5.990 3.206,6.198 3.206,6.406 C3.206,6.622 3.294,6.822 3.438,6.974 C3.590,7.118 3.798,7.206 4.006,7.206 C4.214,7.206 4.422,7.118 4.574,6.974 C4.718,6.822 4.806,6.614 4.806,6.406 C4.806,6.198 4.718,5.990 4.574,5.838 ZM6.974,5.838 C6.678,5.542 6.134,5.542 5.838,5.838 C5.694,5.990 5.606,6.190 5.606,6.406 C5.606,6.622 5.694,6.822 5.838,6.974 C5.990,7.118 6.198,7.206 6.406,7.206 C6.614,7.206 6.822,7.118 6.974,6.974 C7.118,6.822 7.206,6.614 7.206,6.406 C7.206,6.198 7.118,5.990 6.974,5.838 ZM9.374,5.838 C9.078,5.542 8.534,5.542 8.238,5.838 C8.094,5.990 8.006,6.198 8.006,6.406 C8.006,6.614 8.094,6.822 8.238,6.974 C8.390,7.118 8.598,7.206 8.806,7.206 C9.014,7.206 9.222,7.118 9.374,6.974 C9.518,6.822 9.606,6.614 9.606,6.406 C9.606,6.198 9.518,5.990 9.374,5.838 Z" class="cls-1"/>
</svg>
