<?xml version="1.0" encoding="UTF-8" standalone="no"?>
<svg width="14px" height="15px" viewBox="0 0 14 15" version="1.1" xmlns="http://www.w3.org/2000/svg" xmlns:xlink="http://www.w3.org/1999/xlink">
    <!-- Generator: sketchtool 3.8.3 (29802) - http://www.bohemiancoding.com/sketch -->
    <title>B24DCB33-D33E-4869-80F6-7ABFDC16954D</title>
    <desc>Created with sketchtool.</desc>
    <defs></defs>
    <g id="Symbols" stroke="none" stroke-width="1" fill="none" fill-rule="evenodd">
        <g id="Info-Bar" transform="translate(-1028.000000, -13.000000)" fill="#FFFFFF">
            <g id="Button">
                <g transform="translate(1023.000000, 8.000000)">
                    <path d="M15.6875,5 L10.3215,5 C9.2505,5 8.0715,6.448 8.0715,7.982 L9.9165,7.969 C10.0615,7.679 9.9345,6.985 10.7025,6.985 L15.1085,6.985 C15.6045,6.985 16.0035,7.384 16.0035,7.88 L16.0035,12.14 C16.0035,12.636 15.6045,13.035 15.1085,13.035 L10.7025,13.035 C10.2065,13.035 9.8075,13.011 9.8075,12.515 L9.8075,12.188 L7.9825,12.192 L7.9825,12.674 C7.9825,13.96 9.0175,14.995 10.3035,14.995 L15.6875,14.995 C16.9735,14.995 18.0085,13.96 18.0085,12.674 L18.0085,7.321 C18.0085,6.036 16.9555,5 15.6875,5 Z M12.306,17.0348 L7.9,17.0348 C7.404,17.0348 7.005,16.6358 7.005,16.1398 L7.005,11.8798 C7.005,11.3838 7.404,10.9848 7.9,10.9848 L12.306,10.9848 C12.802,10.9848 13.201,11.0088 13.201,11.5048 L13.201,11.8318 L15.027,11.8598 L15.027,11.3458 C15.027,10.0598 13.991,9.0248 12.705,9.0248 L7.321,9.0248 C6.036,9.0248 5,10.0598 5,11.3458 L5,16.6988 C5,17.9848 6.054,19.0198 7.321,19.0198 L12.688,19.0198 C13.759,19.0198 14.938,17.5408 14.938,16.0068 L13.092,16.0198 C12.947,16.3098 13.114,17.0348 12.306,17.0348 Z" id="Icon-Similar-Frame-Fill"></path>
                </g>
            </g>
        </g>
    </g>
</svg>
