<svg width="14" height="15" viewBox="0 0 14 15" xmlns="http://www.w3.org/2000/svg"><path d="M10.688 0H5.32c-1.07 0-2.25 1.448-2.25 2.982l1.845-.013c.146-.29.018-.984.787-.984h4.405c.496 0 .895.399.895.895v4.26a.893.893 0 0 1-.895.895H5.703c-.497 0-.896-.024-.896-.52v-.327l-1.825.004v.482a2.316 2.316 0 0 0 2.321 2.321h5.385a2.316 2.316 0 0 0 2.32-2.321V2.321A2.328 2.328 0 0 0 10.689 0zM7.306 12.035H2.9a.893.893 0 0 1-.895-.895V6.88c0-.496.399-.895.895-.895h4.406c.496 0 .895.024.895.52v.327l1.826.028v-.514a2.317 2.317 0 0 0-2.322-2.321H2.321A2.316 2.316 0 0 0 0 6.345V11.7a2.328 2.328 0 0 0 2.321 2.32h5.367c1.071 0 2.25-1.478 2.25-3.012l-1.846.013c-.145.29.022 1.015-.786 1.015z" fill="#FFF" fill-rule="evenodd"/></svg>
