<svg xmlns="http://www.w3.org/2000/svg" preserveAspectRatio="xMidYMid" width="1290" height="2598.5" viewBox="0 0 1290 2598.5"><defs><style>.cls-1{fill:#fff}.cls-2,.cls-3,.cls-4{stroke:#e7e7e7;opacity:.3;fill-rule:evenodd}.cls-2{stroke-width:1px}.cls-2,.cls-4{fill:none}.cls-3{fill:#ebebeb;stroke-width:2px}.cls-4{stroke-width:3px}</style></defs><path class="cls-1" d="M0 0h1290v1361H0z"/><path d="M1106.892 1209.147L65.624 1488.154C9.077 1503.306-24.48 1561.43-9.33 1617.977l127.34 475.235c15.152 56.548 73.275 90.106 129.823 74.953L1289.1 1889.16c56.548-15.153 90.106-73.277 74.954-129.824l-127.34-475.236c-15.15-56.547-73.274-90.105-129.822-74.953z" class="cls-2"/><path d="M-217.647 1478.626L61.36 2519.894c15.152 56.548 73.276 90.106 129.823 74.954l475.236-127.34c56.546-15.15 90.104-73.275 74.952-129.822L462.365 1296.418c-15.152-56.548-73.276-90.105-129.823-74.953l-475.236 127.338c-56.547 15.153-90.105 73.276-74.953 129.823z" class="cls-3"/><path d="M801.892 1489.147l-1041.268 279.007c-56.547 15.152-90.105 73.275-74.953 129.823l127.34 475.235c15.152 56.548 73.275 90.106 129.823 74.954L984.1 2169.16c56.548-15.153 90.106-73.277 74.954-129.824L931.714 1564.1c-15.15-56.547-73.274-90.105-129.822-74.953z" class="cls-4"/><path d="M210.97 119.99l1041.268 279.008c56.548 15.15 90.105 73.275 74.954 129.823l-127.34 475.236c-15.15 56.548-73.275 90.105-129.822 74.953L28.762 800.002c-56.548-15.152-90.105-73.276-74.954-129.824l127.34-475.236c15.15-56.547 73.275-90.105 129.822-74.954z" class="cls-2"/><path d="M1614.51 392.47L1335.5 1433.738c-15.15 56.547-73.275 90.105-129.823 74.954l-475.236-127.34c-56.547-15.15-90.105-73.275-74.953-129.822L934.5 210.26c15.15-56.546 73.275-90.103 129.822-74.952l475.236 127.34c56.547 15.15 90.105 73.275 74.953 129.822z" class="cls-3"/><path d="M517.97 399.99l1041.268 279.008c56.548 15.15 90.105 73.275 74.954 129.822l-127.34 475.236c-15.15 56.547-73.275 90.105-129.822 74.953L335.762 1080.002c-56.548-15.153-90.106-73.276-74.954-129.824l127.34-475.236c15.15-56.547 73.275-90.105 129.822-74.954z" class="cls-4"/></svg>