<svg xmlns="http://www.w3.org/2000/svg" preserveAspectRatio="xMidYMid" width="22.5" height="22.5" viewBox="0 0 22.5 22.5"><defs><style>.cls-1{fill:#07beea;fill-rule:evenodd}</style></defs><path d="M11.25 0A11.235 11.235 0 0 0 0 11.25C0 17.475 5.025 22.5 11.25 22.5S22.5 17.475 22.5 11.25 17.45 0 11.25 0zm5.875 8.475L10.45 15.3a.888.888 0 0 1-.625.25c-.25 0-.45-.1-.625-.25l-3.775-3.85a.888.888 0 0 1-.25-.625c0-.5.4-.9.875-.9.25 0 .45.1.625.25l3.15 3.225L15.9 7.2c.15-.15.375-.25.625-.25.475 0 .875.4.875.9-.025.25-.125.475-.275.625z" class="cls-1"/></svg>