<svg xmlns="http://www.w3.org/2000/svg" width="262.5" height="216.4" viewBox="0 0 262.5 216.4"><style>.st0{fill:#101b21}.st1{fill:#fff}.st2{fill:#3e4959}.st3{fill:#d40e4f}.st4{fill:#0ab9ee}.st5{fill:#e6e5e5}</style><path class="st0" d="M163.5 0h-83c-7.9 0-14.3 6.4-14.3 14.3v176.6c0 7.9 6.4 14.3 14.3 14.3h83.1c7.9 0 14.3-6.4 14.3-14.3V14.3C177.8 6.4 171.4 0 163.5 0z"/><path class="st1" d="M74.2 31h95.5v143.2H74.2z"/><path class="st2" d="M113.1 194.1c-2.1 0-3.8-1.7-3.8-3.8v-1.2c0-2.1 1.7-3.8 3.8-3.8h17.7c2.1 0 3.8 1.7 3.8 3.8v1.2c0 2.1-1.7 3.8-3.8 3.8h-17.7zm12.5-178.6c0 2-1.6 3.6-3.6 3.6s-3.6-1.6-3.6-3.6 1.6-3.6 3.6-3.6 3.6 1.6 3.6 3.6z"/><path class="st0" d="M123.4 15.5c0 .8-.6 1.4-1.4 1.4-.8 0-1.4-.6-1.4-1.4 0-.8.6-1.4 1.4-1.4.8 0 1.4.6 1.4 1.4zM122 125.6c-12.7 0-23-10.3-23-23s10.3-23 23-23 23 10.3 23 23-10.3 23-23 23zm0-38.9c-8.8 0-15.9 7.1-15.9 15.9s7.1 15.9 15.9 15.9 15.9-7.1 15.9-15.9-7.1-15.9-15.9-15.9zm86.1-15.2c-10.2 0-18.6-8.3-18.6-18.6 0-10.2 8.3-18.6 18.6-18.6 10.2 0 18.6 8.3 18.6 18.6-.1 10.2-8.4 18.6-18.6 18.6zm-58.9 19.4l-3.5-6.1 5.6-3.2 3.5 6.1-5.6 3.2zm11.2-6.4l-3.5-6.1 5.6-3.2 3.5 6.1-5.6 3.2zm11.1-6.4L168 72l5.6-3.2 3.5 6.1-5.6 3.2zm11.1-6.4l-3.5-6.1 5.6-3.2 3.5 6.1-5.6 3.2z"/><path class="st0" d="M118.4 92.9h7.1v19.5h-7.1z"/><path class="st0" d="M112.3 99h19.5v7.1h-19.5z"/><path class="st3" d="M132.2 134.9h130.3v81.5H132.2z"/><path class="st1" d="M185.2 161.5l24.4 14.1-24.4 14.1z"/><circle class="st4" cx="59.3" cy="163.3" r="22.5"/><path class="st1" d="M67.467 152.717l2.333 2.334-18.744 18.737-2.333-2.334zM65.1 174.3c-2.8 0-5.2-2.3-5.2-5.2 0-2.8 2.3-5.2 5.2-5.2 2.8 0 5.2 2.3 5.2 5.2 0 2.9-2.4 5.2-5.2 5.2zm0-7.1c-1 0-1.9.9-1.9 1.9 0 1.1.9 1.9 1.9 1.9 1.1 0 1.9-.8 1.9-1.9 0-1.1-.8-1.9-1.9-1.9zm-11.7-4.6c-2.8 0-5.2-2.3-5.2-5.2 0-2.8 2.3-5.2 5.2-5.2 2.8 0 5.2 2.3 5.2 5.2 0 2.9-2.3 5.2-5.2 5.2zm0-7.1c-1.1 0-1.9.8-1.9 1.9 0 1.1.9 1.9 1.9 1.9 1 0 1.9-.9 1.9-1.9 0-1-.8-1.9-1.9-1.9z"/><circle class="st0" cx="110.9" cy="52.5" r="4.2"/><circle class="st5" cx="137.5" cy="67.3" r="2.7"/><circle class="st4" cx="153.8" cy="125.6" r="3.6"/><circle class="st5" cx="106.1" cy="147.6" r="6"/><path class="st0" d="M82.4 147.9c-.8 0-1.5-.3-2-.8s-.8-1.3-.8-2c0-.8.3-1.5.8-2s1.3-.8 2-.8c.8 0 1.5.3 2 .8s.8 1.3.8 2-.3 1.5-.8 2-1.2.8-2 .8zm6.7-6.7c-.8 0-1.5-.3-2-.8-1.1-1.1-1.1-3 0-4.1.5-.5 1.3-.8 2-.8.8 0 1.5.3 2 .8 1.1 1.1 1.1 3 0 4.1-.5.5-1.2.8-2 .8zm6.7-6.7c-.8 0-1.5-.3-2-.8-1.1-1.1-1.1-3 0-4.1.5-.5 1.3-.8 2-.8.8 0 1.5.3 2 .8s.8 1.3.8 2c0 .8-.3 1.5-.8 2-.5.6-1.2.9-2 .9zm6.1-6.8c-.8 0-1.5-.3-2-.8-1.1-1.1-1.1-3 0-4.1.5-.5 1.3-.8 2-.8.8 0 1.5.3 2 .8s.8 1.3.8 2c0 .8-.3 1.5-.8 2-.5.6-1.3.9-2 .9z"/><path class="st3" d="M91.6 68.9c0 3.1-2.5 5.6-5.6 5.6H31.1c-3.1 0-5.6-2.5-5.6-5.6v-55c0-3.1 2.5-5.6 5.6-5.6H86c3.1 0 5.6 2.5 5.6 5.6v55z"/><path class="st1" d="M83 41.4c0 13.5-10.9 24.4-24.4 24.4-13.5 0-24.4-10.9-24.4-24.4C34.2 27.9 45.1 17 58.6 17 72.1 17 83 27.9 83 41.4z"/><path class="st0" d="M54.5 50.9c-1.1 0-2 .9-2 2s.9 2 2 2 2-.9 2-2-.9-2-2-2zm8.2 0c-1.1 0-2 .9-2 2s.9 2 2 2 2-.9 2-2c.1-1.1-.9-2-2-2zm1.7-9H52.8l.5 1.5h10.6zM63 46.4l.5-1.5h-9.8l.5 1.5z"/><path class="st0" d="M51.7 38.1l.6 2.2h14.1l-2.3 7.6h-11L49 34.3h-6.1v2.2h4.4l4.1 13.7h14.4l3.6-12.1z"/><path class="st0" d="M53.89 32.13l2.194 2.192-2.192 2.193-2.193-2.19zm9.07-4.225l4.387 4.382-4.382 4.386-4.386-4.383z"/><path class="st5" d="M34.2 126.6h5.1v5.1h-5.1z"/><path class="st4" d="M0 95.7h12.4V108H0"/></svg>