<svg xmlns="http://www.w3.org/2000/svg" width="228" height="200.2" viewBox="0 0 228 200.2"><style>.st0{fill:#d9d8d7}.st1{fill:#cccbca}.st2{fill:#e6e5e5}.st3{fill:#101b21}.st4{fill:#FFF}.st5{fill:#0ab9ee}.st6{fill:#d40e4f}</style><path class="st0" d="M152.1 196.5h-49.3l4.4-25.1h40.4z"/><path class="st1" d="M152.1 196.5l-4.5-25.1h-40.4l32.3 25.1z"/><path class="st2" d="M165.2 200.2H89.6v-1.4c0-.6.2-1.2.7-1.6.5-.5 1-.7 1.6-.7H163c.6 0 1.2.2 1.6.7.4.5.7 1 .7 1.6v1.4zM216.2 155.1V167c0 2.4-1.9 4.3-4.3 4.3H43c-2.4 0-4.3-1.9-4.3-4.3v-11.9h177.5z"/><path class="st3" d="M216.2 155.1V41.8c0-2.4-1.9-4.3-4.3-4.3H43c-2.4 0-4.3 2-4.3 4.3v113.3h177.5z"/><path class="st4" d="M47.6 46.5h159.5v99.7H47.6z"/><g><path class="st5" d="M135.8 0H228v63.8h-92.2z"/><path class="st4" d="M213.7 15l-3.8 1.5-3.7 7.2-3.8.6-3.7 3.6-3.8-1.6-4.3-3.4-3.2 4.6-3.7 2.4-3.8-2.9-3.7 2.5-3.8 1.1-3.7 7-3.7 2.1-3.8-3.4-3.7-1.5-3.8 6.5-3.8-1.4-3.7 3.1-3.9.5v9.1h79.1V8.3l-4 .7z"/><path class="st3" d="M142.7 57.7l-.7-1.2 3.8-2.1 3.9-8 3.8-.2 3.7-6.1 3.8-.6 3.9-5.6 4.4 2 3.8 4.4 2.8-4.2 4.4-1.3 3.5 2.9 3.4-3.7 3.6-1.2 3.7-8.7 4.5-2.7 4.1 5.4 3 1.9 3.7-5.3 3.9 1.5 3.6-3.2 4-.6.2 1.4-3.6.5-3.9 3.5-3.7-1.4-3.8 5.5-4.4-2.8-3.4-4.6-3.1 1.8-3.7 8.9-3.9 1.3-4.1 4.4-3.9-3.3-3.2.9-3.5 5.4-4.9-5.5-3.1-1.4-3.5 5-3.8.7-3.7 6.1-3.7.2-3.7 7.7z"/><path class="st6" d="M0 70.5h108.9v69.1H0z"/><path class="st2" d="M173.3 77.7v23.9h23.9c-.1-13.2-10.7-23.9-23.9-23.9z"/><path class="st3" d="M173.3 101.6V77.7c-13.2 0-23.9 10.7-23.9 23.9s10.7 23.9 23.9 23.9c6.6 0 12.6-2.7 16.9-7l-16.9-16.9z"/><path class="st5" d="M173.3 101.6l16.9 16.9c4.3-4.3 7-10.3 7-16.9h-23.9z"/><g><path class="st6" d="M101.2 40.1c0 13.4-10.9 24.3-24.3 24.3S52.6 53.5 52.6 40.1s10.9-24.3 24.3-24.3 24.3 10.9 24.3 24.3z"/><path class="st4" d="M78.6 52.5h-3.4c-1.9 0-3.7-.7-5.1-2.1-1.4-1.4-2.1-3.2-2.1-5.1h4.1c0 .8.3 1.6.9 2.2.6.6 1.4.9 2.2.9h3.4c.8 0 1.6-.3 2.2-.9.6-.6.9-1.3.9-2.2 0-.8-.3-1.6-.9-2.2-.6-.6-1.4-.9-2.2-.9h-3.4c-1.9 0-3.7-.8-5.1-2.1-1.4-1.4-2.1-3.2-2.1-5.1 0-1.9.8-3.7 2.1-5.1 1.4-1.4 3.2-2.1 5.1-2.1h3.4c1.9 0 3.7.7 5.1 2.1 1.4 1.4 2.1 3.2 2.1 5.1h-4.1c0-.8-.3-1.6-.9-2.2-.6-.6-1.4-.9-2.2-.9h-3.4c-.8 0-1.6.3-2.2.9-.6.6-.9 1.4-.9 2.2 0 .8.3 1.6.9 2.2.6.6 1.4.9 2.2.9h3.4c1.9 0 3.7.8 5.1 2.1 1.4 1.4 2.1 3.2 2.1 5.1 0 1.9-.8 3.7-2.1 5.1-1.4 1.4-3.2 2.1-5.1 2.1z"/><path class="st4" d="M74.8 25h4.1v4.8h-4.1zM74.8 50.4h4.1v4.8h-4.1z"/></g><path class="st6" d="M145.1 121.1c0 4.4-3.6 8-8 8s-8-3.6-8-8 3.6-8 8-8 8 3.6 8 8z"/><path class="st3" d="M128 88.5c0 2.7-2.2 4.9-4.9 4.9s-4.9-2.2-4.9-4.9 2.2-4.9 4.9-4.9 4.9 2.2 4.9 4.9z"/><circle class="st3" cx="34.2" cy="14.2" r="5.6"/></g><path class="st4" d="M46.4 91.5l23.9 13.8-23.9 13.8z"/></svg>