<svg xmlns="http://www.w3.org/2000/svg" width="66.5" height="63.8" viewBox="0 0 66.5 63.8"><path fill="rgb(255, 255, 255)" d="M53.3 63.8H13.2c-5.3 0-9.6-2.1-11.8-5.7-2.1-3.6-1.9-8.4.7-13L22.8 7.4C25.4 2.6 29.1 0 33.3 0c4.1 0 7.8 2.6 10.5 7.4l20.7 37.7c2.6 4.7 2.8 9.4.7 13-2.2 3.7-6.5 5.7-11.9 5.7zm-20-57.4c-1.7 0-3.4 1.5-4.9 4.1L7.7 48.2c-1.5 2.7-1.7 5.1-.8 6.7 1 1.6 3.2 2.5 6.3 2.5h40.1c3 0 5.3-.9 6.3-2.5s.7-4.1-.8-6.7L38.1 10.5c-1.4-2.6-3.2-4.1-4.8-4.1z"/><path fill="rgb(255, 255, 255)" d="M29.4 46.4c0-2.3 1.6-3.9 3.8-3.9s3.8 1.6 3.8 3.9c0 2.2-1.5 3.9-3.8 3.9-2.2-.1-3.8-1.7-3.8-3.9zm1.5-6.1l-1-19.3h6.8l-.9 19.3h-4.9z"/></svg>
