<svg xmlns="http://www.w3.org/2000/svg" xmlns:xlink="http://www.w3.org/1999/xlink" preserveAspectRatio="xMidYMid" width="16" height="16" viewBox="0 0 16 16">
  <defs>
    <style>
      .cls-1 {
        fill: #ec410f;
        fill-rule: evenodd;
      }
    </style>
  </defs>
  <path d="M8.000,16.000 C3.589,16.000 0.000,12.411 0.000,8.000 C0.000,3.589 3.589,-0.000 8.000,-0.000 C12.411,-0.000 16.000,3.589 16.000,8.000 C16.000,12.411 12.411,16.000 8.000,16.000 ZM9.000,5.000 C9.000,4.447 8.553,4.000 8.000,4.000 C7.447,4.000 7.000,4.447 7.000,5.000 L7.000,8.000 C7.000,8.553 7.447,9.000 8.000,9.000 C8.553,9.000 9.000,8.553 9.000,8.000 L9.000,5.000 ZM8.710,10.290 C8.340,9.920 7.660,9.920 7.290,10.290 C7.109,10.479 7.000,10.740 7.000,11.000 C7.000,11.260 7.109,11.520 7.290,11.710 C7.480,11.890 7.740,12.000 8.000,12.000 C8.260,12.000 8.520,11.890 8.710,11.710 C8.890,11.520 9.000,11.260 9.000,11.000 C9.000,10.740 8.890,10.479 8.710,10.290 Z" class="cls-1"/>
</svg>
