<svg xmlns="http://www.w3.org/2000/svg" xmlns:xlink="http://www.w3.org/1999/xlink" preserveAspectRatio="xMidYMid" width="16" height="16" viewBox="0 0 16 16">
  <defs>
    <style>
      .cls-1 {
        fill: #737373;
        fill-rule: evenodd;
      }
    </style>
  </defs>
  <path d="M8.000,16.000 C3.589,16.000 0.000,12.411 0.000,8.000 C0.000,3.589 3.589,-0.000 8.000,-0.000 C12.411,-0.000 16.000,3.589 16.000,8.000 C16.000,12.411 12.411,16.000 8.000,16.000 ZM8.000,2.000 C4.691,2.000 2.000,4.691 2.000,8.000 C2.000,11.309 4.691,14.000 8.000,14.000 C11.309,14.000 14.000,11.309 14.000,8.000 C14.000,4.691 11.309,2.000 8.000,2.000 ZM8.000,12.000 C7.740,12.000 7.480,11.890 7.290,11.710 C7.109,11.520 7.000,11.260 7.000,11.000 C7.000,10.740 7.109,10.479 7.290,10.290 C7.660,9.920 8.340,9.920 8.710,10.290 C8.890,10.479 9.000,10.740 9.000,11.000 C9.000,11.260 8.890,11.520 8.710,11.710 C8.520,11.890 8.260,12.000 8.000,12.000 ZM8.000,9.000 C7.447,9.000 7.000,8.553 7.000,8.000 L7.000,5.000 C7.000,4.447 7.447,4.000 8.000,4.000 C8.553,4.000 9.000,4.447 9.000,5.000 L9.000,8.000 C9.000,8.553 8.553,9.000 8.000,9.000 Z" class="cls-1"/>
</svg>
