<svg xmlns="http://www.w3.org/2000/svg" xmlns:xlink="http://www.w3.org/1999/xlink" preserveAspectRatio="xMidYMid" width="16" height="16" viewBox="0 0 16 16">
  <defs>
    <style>
      .cls-1 {
        fill: #0073d3;
        fill-rule: evenodd;
      }
    </style>
  </defs>
  <path d="M8.000,16.000 C3.589,16.000 -0.000,12.411 -0.000,8.000 C-0.000,3.589 3.589,-0.000 8.000,-0.000 C12.411,-0.000 16.000,3.589 16.000,8.000 C16.000,12.411 12.411,16.000 8.000,16.000 ZM11.707,5.293 C11.316,4.902 10.684,4.902 10.293,5.293 L7.000,8.586 L5.707,7.293 C5.316,6.902 4.684,6.902 4.293,7.293 C3.902,7.684 3.902,8.316 4.293,8.707 L6.293,10.707 C6.488,10.902 6.744,11.000 7.000,11.000 C7.256,11.000 7.512,10.902 7.707,10.707 L11.707,6.707 C12.098,6.316 12.098,5.684 11.707,5.293 Z" class="cls-1"/>
</svg>
