<svg xmlns="http://www.w3.org/2000/svg" xmlns:xlink="http://www.w3.org/1999/xlink" preserveAspectRatio="xMidYMid" width="16" height="16" viewBox="0 0 16 16">
  <defs>
    <style>
      .cls-1 {
        fill: #737373;
        fill-rule: evenodd;
      }
    </style>
  </defs>
  <path d="M8.000,16.000 C3.589,16.000 -0.000,12.411 -0.000,8.000 C-0.000,3.589 3.589,-0.000 8.000,-0.000 C12.411,-0.000 16.000,3.589 16.000,8.000 C16.000,12.411 12.411,16.000 8.000,16.000 ZM8.000,2.000 C4.691,2.000 2.000,4.691 2.000,8.000 C2.000,11.309 4.691,14.000 8.000,14.000 C11.309,14.000 14.000,11.309 14.000,8.000 C14.000,4.691 11.309,2.000 8.000,2.000 ZM7.707,10.707 C7.512,10.902 7.256,11.000 7.000,11.000 C6.744,11.000 6.488,10.902 6.293,10.707 L4.293,8.707 C3.902,8.316 3.902,7.684 4.293,7.293 C4.684,6.902 5.316,6.902 5.707,7.293 L7.000,8.586 L10.293,5.293 C10.684,4.902 11.316,4.902 11.707,5.293 C12.098,5.684 12.098,6.316 11.707,6.707 L7.707,10.707 Z" class="cls-1"/>
</svg>
