<?xml version="1.0" encoding="UTF-8" standalone="no"?>
<svg width="22px" height="19px" viewBox="0 0 22 19" version="1.1" xmlns="http://www.w3.org/2000/svg" xmlns:xlink="http://www.w3.org/1999/xlink">
    <!-- Generator: sketchtool 3.8.3 (29802) - http://www.bohemiancoding.com/sketch -->
    <title>CDC15BC9-DE2A-4BDE-8447-6FEC94826829</title>
    <desc>Created with sketchtool.</desc>
    <defs></defs>
    <g id="Symbols" stroke="none" stroke-width="1" fill="none" fill-rule="evenodd">
        <g id="Frame-Controls" transform="translate(-691.000000, -33.000000)">
            <g id="Icon-Eye-Invisible" transform="translate(691.000000, 33.000000)">
                <polygon id="Shape" points="0 0 24 0 24 24 0 24"></polygon>
                <path d="M6,9.1924 C6,6.4324 8.24,4.1924 11,4.1924 C12.018,4.1924 12.96,4.5054 13.749,5.0294 L12.29,6.4874 C11.9,6.3004 11.464,6.1924 11,6.1924 C9.34,6.1924 8,7.5324 8,9.1924 C8,9.6564 8.108,10.0924 8.295,10.4824 L6.837,11.9414 C6.313,11.1524 6,10.2104 6,9.1924 L6,9.1924 Z M8.253,13.3634 C8.251,13.3624 8.249,13.3614 8.247,13.3594 L9.713,11.8934 C9.716,11.8944 9.717,11.8954 9.72,11.8964 L13.704,7.9124 C13.703,7.9094 13.702,7.9084 13.701,7.9054 L15.167,6.4394 C15.169,6.4414 15.17,6.4434 15.171,6.4454 L17.78,3.8364 C17.778,3.8354 17.776,3.8344 17.774,3.8324 L20.192,1.4144 L18.778,0.0004 L15.977,2.8014 C14.464,2.0944 12.781,1.6924 11,1.6924 C6,1.6924 1.73,4.8024 0,9.1924 C0.858,11.3694 2.346,13.2224 4.234,14.5444 L1.808,16.9704 L3.222,18.3844 L6.021,15.5854 C6.023,15.5864 6.026,15.5874 6.028,15.5884 L8.253,13.3634 Z M19.315,5.1299 L15.932,8.5129 C15.962,8.7379 16,8.9599 16,9.1929 C16,11.9529 13.76,14.1929 11,14.1929 C10.767,14.1929 10.545,14.1549 10.321,14.1239 L8.113,16.3319 C9.038,16.5639 10.003,16.6929 11,16.6929 C16,16.6929 20.27,13.5829 22,9.1929 C21.393,7.6529 20.469,6.2759 19.315,5.1299 Z" id="Combined-Shape" fill="#EC410F"></path>
            </g>
        </g>
    </g>
</svg>