<svg xmlns="http://www.w3.org/2000/svg" xmlns:xlink="http://www.w3.org/1999/xlink" preserveAspectRatio="xMidYMid" width="16" height="16" viewBox="0 0 16 16">
  <defs>
    <style>
      .cls-1 {
        fill: #f8aa0f;
        fill-rule: evenodd;
      }
    </style>
  </defs>
  <path d="M8.000,16.000 C3.589,16.000 0.000,12.411 0.000,8.000 C0.000,3.589 3.589,-0.000 8.000,-0.000 C12.411,-0.000 16.000,3.589 16.000,8.000 C16.000,12.411 12.411,16.000 8.000,16.000 ZM5.710,7.290 C5.330,6.920 4.660,6.920 4.290,7.290 C4.110,7.480 4.000,7.740 4.000,8.000 C4.000,8.270 4.110,8.519 4.290,8.710 C4.480,8.890 4.740,9.000 5.000,9.000 C5.260,9.000 5.520,8.890 5.710,8.710 C5.890,8.519 6.000,8.260 6.000,8.000 C6.000,7.740 5.890,7.480 5.710,7.290 ZM8.710,7.290 C8.340,6.920 7.660,6.920 7.290,7.290 C7.110,7.480 7.000,7.729 7.000,8.000 C7.000,8.270 7.110,8.519 7.290,8.710 C7.480,8.890 7.740,9.000 8.000,9.000 C8.260,9.000 8.520,8.890 8.710,8.710 C8.890,8.519 9.000,8.260 9.000,8.000 C9.000,7.740 8.890,7.480 8.710,7.290 ZM11.710,7.290 C11.340,6.920 10.660,6.920 10.290,7.290 C10.110,7.480 10.000,7.740 10.000,8.000 C10.000,8.260 10.110,8.519 10.290,8.710 C10.480,8.890 10.740,9.000 11.000,9.000 C11.260,9.000 11.520,8.890 11.710,8.710 C11.890,8.519 12.000,8.260 12.000,8.000 C12.000,7.740 11.890,7.480 11.710,7.290 Z" class="cls-1"/>
</svg>
