<svg xmlns="http://www.w3.org/2000/svg" xmlns:xlink="http://www.w3.org/1999/xlink" preserveAspectRatio="xMidYMid" width="16" height="16" viewBox="0 0 16 16">
  <defs>
    <style>
      .cls-1 {
        fill: #737373;
        fill-rule: evenodd;
      }
    </style>
  </defs>
  <path d="M8.000,16.000 C3.589,16.000 0.000,12.411 0.000,8.000 C0.000,3.589 3.589,-0.000 8.000,-0.000 C12.411,-0.000 16.000,3.589 16.000,8.000 C16.000,12.411 12.411,16.000 8.000,16.000 ZM8.000,2.000 C4.691,2.000 2.000,4.691 2.000,8.000 C2.000,11.309 4.691,14.000 8.000,14.000 C11.309,14.000 14.000,11.309 14.000,8.000 C14.000,4.691 11.309,2.000 8.000,2.000 ZM11.000,9.000 C10.740,9.000 10.480,8.890 10.290,8.710 C10.110,8.519 10.000,8.260 10.000,8.000 C10.000,7.740 10.110,7.480 10.290,7.290 C10.660,6.920 11.340,6.920 11.710,7.290 C11.890,7.480 12.000,7.740 12.000,8.000 C12.000,8.260 11.890,8.519 11.710,8.710 C11.520,8.890 11.260,9.000 11.000,9.000 ZM8.000,9.000 C7.740,9.000 7.480,8.890 7.290,8.710 C7.110,8.519 7.000,8.270 7.000,8.000 C7.000,7.729 7.110,7.480 7.290,7.290 C7.660,6.920 8.340,6.920 8.710,7.290 C8.890,7.480 9.000,7.740 9.000,8.000 C9.000,8.260 8.890,8.519 8.710,8.710 C8.520,8.890 8.260,9.000 8.000,9.000 ZM5.000,9.000 C4.740,9.000 4.480,8.890 4.290,8.710 C4.110,8.519 4.000,8.270 4.000,8.000 C4.000,7.740 4.110,7.480 4.290,7.290 C4.660,6.920 5.330,6.920 5.710,7.290 C5.890,7.480 6.000,7.740 6.000,8.000 C6.000,8.260 5.890,8.519 5.710,8.710 C5.520,8.890 5.260,9.000 5.000,9.000 Z" class="cls-1"/>
</svg>
