<svg version="1.1"
	 xmlns="http://www.w3.org/2000/svg" xmlns:xlink="http://www.w3.org/1999/xlink" xmlns:a="http://ns.adobe.com/AdobeSVGViewerExtensions/3.0/"
	 x="0px" y="0px" width="19.2px" height="19.2px" viewBox="0 0 19.2 19.2" style="enable-background:new 0 0 19.2 19.2;"
	 xml:space="preserve">
<style type="text/css">
	.st0{fill:#0073D3;}
	.st1{fill:#FFFFFF;}
</style>
<g>
	<path class="st0" d="M9.6,19.2C4.3,19.2,0,14.9,0,9.6S4.3,0,9.6,0s9.6,4.3,9.6,9.6S14.9,19.2,9.6,19.2z"/>
	<path class="st1" d="M8.4,13.2c-0.3,0-0.6-0.1-0.8-0.4l-2.4-2.4c-0.5-0.5-0.5-1.2,0-1.7c0.5-0.5,1.2-0.5,1.7,0l1.6,1.6l4-4
		c0.5-0.5,1.2-0.5,1.7,0c0.5,0.5,0.5,1.2,0,1.7l-4.8,4.8C9,13.1,8.7,13.2,8.4,13.2z"/>
</g>
</svg>
