<svg xmlns="http://www.w3.org/2000/svg" preserveAspectRatio="xMidYMid" width="41.563" height="41.656" viewBox="0 0 41.563 41.656"><defs><style>.cls-1{fill:#d40e4f;fill-rule:evenodd}</style></defs><path d="M41.28 19.267c-.243.278-.616.437-1.026.437h-17.1a1.303 1.303 0 0 1-1.302-1.302v-17.1c0-.718.584-1.302 1.302-1.302C33.21 0 41.467 8.136 41.556 18.138v.177c.05.326-.047.686-.277.952zM24.54 2.72V17.1h14.38C38.295 9.544 32.1 3.35 24.54 2.72zm12.164 20.456c.043 4.948-1.836 9.592-5.29 13.076-3.46 3.49-8.087 5.413-13.026 5.413-10.146 0-18.4-8.255-18.4-18.402S8.243 4.86 18.39 4.86c.718 0 1.302.585 1.302 1.303v15.71h15.712c.718 0 1.302.585 1.302 1.303zM18.39 24.652a1.303 1.303 0 0 1-1.302-1.302V7.586c-8.116.73-14.408 7.53-14.408 15.677 0 8.71 7.048 15.798 15.71 15.798 8.232 0 15.034-6.29 15.683-14.408H18.39z" class="cls-1"/></svg>