<svg xmlns="http://www.w3.org/2000/svg" preserveAspectRatio="xMidYMid" width="48.906" height="39.469" viewBox="0 0 48.906 39.469"><defs><style>.cls-1{fill:#d40e4f;fill-rule:evenodd}</style></defs><path d="M1.223 34.486h22.012v2.53H14.53c-.647 0-1.222.577-1.222 1.224 0 .648.575 1.223 1.223 1.223h19.854c.648 0 1.223-.575 1.223-1.223 0-.647-.575-1.223-1.223-1.223H25.68v-2.53h22.012c.648 0 1.223-.576 1.223-1.224V1.223C48.915.575 48.34 0 47.692 0H1.222C.576 0 0 .575 0 1.223v32.04c0 .72.575 1.223 1.223 1.223zm1.223-32.04h43.95V32.04H2.447V2.446zm27.91 18.99c0 2.446-2.014 4.46-4.46 4.46h-.072H25.608v1.942c0 .648-.575 1.223-1.222 1.223-.648 0-1.223-.574-1.223-1.222v-1.942h-2.59c-.647 0-1.223-.575-1.223-1.223 0-.647.576-1.223 1.223-1.223H25.968c1.08 0 2.014-.935 2.014-2.014 0-1.08-.935-2.014-2.014-2.014h-2.95c-2.445 0-4.46-2.014-4.46-4.46 0-2.445 2.015-4.46 4.46-4.46h.217v-1.87c0-.647.575-1.223 1.223-1.223.647 0 1.222.574 1.222 1.222v1.87h2.518c.648 0 1.223.576 1.223 1.223 0 .648-.574 1.223-1.222 1.223h-5.25c-1.08 0-2.015.935-2.015 2.014 0 1.08.935 2.014 2.014 2.014h2.95c2.445-.07 4.46 1.943 4.46 4.46z" class="cls-1"/></svg>