<svg xmlns="http://www.w3.org/2000/svg" xmlns:xlink="http://www.w3.org/1999/xlink" preserveAspectRatio="xMidYMid" width="50.562" height="32" viewBox="0 0 50.562 32">
  <defs>
    <style>
      .cls-1 {
        fill: #cdd1d2;
        fill-rule: evenodd;
      }
    </style>
  </defs>
  <path d="M46.163,16.151 C46.339,15.283 46.432,14.385 46.432,13.465 C46.432,6.031 40.405,0.003 32.970,0.003 C27.456,0.003 22.719,3.320 20.638,8.065 C19.039,7.023 17.133,6.413 15.082,6.413 C9.690,6.413 5.287,10.600 4.920,15.898 C2.016,17.231 -0.006,20.157 -0.006,23.562 C-0.006,28.220 3.771,31.997 8.430,31.997 C8.430,31.997 17.569,31.997 20.615,31.997 C21.212,31.997 21.241,31.334 21.241,31.334 L21.241,25.922 C21.241,25.460 20.863,25.082 20.400,25.082 L18.096,25.082 C17.633,25.082 17.480,24.778 17.755,24.406 L24.781,14.922 C25.056,14.551 25.506,14.551 25.782,14.922 L32.807,24.406 C33.082,24.778 32.929,25.082 32.467,25.082 L30.162,25.082 C29.700,25.082 29.321,25.460 29.321,25.922 L29.321,31.345 C29.321,31.345 29.356,31.997 29.975,31.997 C33.015,31.997 42.132,31.997 42.132,31.997 C46.791,31.997 50.568,28.220 50.568,23.562 C50.568,20.363 48.787,17.581 46.163,16.151 Z" class="cls-1"/>
</svg>
